<svg xmlns="http://www.w3.org/2000/svg" xmlns:xlink="http://www.w3.org/1999/xlink" width="300" zoomAndPan="magnify" viewBox="0 0 224.87999 37.5" height="50" preserveAspectRatio="xMidYMid meet" version="1.0"><defs><g/><clipPath id="a6ff3e3ac0"><path d="M 71 28 L 191 28 L 191 37.007812 L 71 37.007812 Z M 71 28 " clip-rule="nonzero"/></clipPath><clipPath id="23fb8c5b5d"><rect x="0" width="120" y="0" height="10"/></clipPath><clipPath id="b683984fb6"><path d="M 13 15 L 33 15 L 33 35.234375 L 13 35.234375 Z M 13 15 " clip-rule="nonzero"/></clipPath><clipPath id="965337bcfc"><path d="M 5.859375 29 L 12 29 L 12 35.234375 L 5.859375 35.234375 Z M 5.859375 29 " clip-rule="nonzero"/></clipPath><clipPath id="f79c31c030"><path d="M 25 2.671875 L 36.207031 2.671875 L 36.207031 18 L 25 18 Z M 25 2.671875 " clip-rule="nonzero"/></clipPath></defs><g fill="#016403" fill-opacity="1"><g transform="translate(48.537314, 23.347738)"><g><path d="M -0.28125 0 L 4.234375 -16.734375 L 9.640625 -16.734375 C 11.242188 -16.734375 12.578125 -16.53125 13.640625 -16.125 C 14.703125 -15.726562 15.550781 -15.210938 16.1875 -14.578125 C 16.800781 -13.960938 17.253906 -13.242188 17.546875 -12.421875 C 17.847656 -11.597656 18 -10.6875 18 -9.6875 C 18 -8.4375 17.765625 -7.242188 17.296875 -6.109375 C 16.828125 -4.984375 16.144531 -3.972656 15.25 -3.078125 C 14.25 -2.078125 13.019531 -1.3125 11.5625 -0.78125 C 10.101562 -0.257812 8.410156 0 6.484375 0 Z M 12.4375 -11.59375 C 12.09375 -11.914062 11.65625 -12.171875 11.125 -12.359375 C 10.601562 -12.546875 9.9375 -12.640625 9.125 -12.640625 L 7.765625 -12.640625 L 5.46875 -4.109375 L 7 -4.109375 C 7.976562 -4.109375 8.878906 -4.25 9.703125 -4.53125 C 10.535156 -4.820312 11.226562 -5.25 11.78125 -5.8125 C 12.226562 -6.257812 12.582031 -6.785156 12.84375 -7.390625 C 13.113281 -8.003906 13.25 -8.648438 13.25 -9.328125 C 13.25 -9.804688 13.175781 -10.234375 13.03125 -10.609375 C 12.882812 -10.992188 12.6875 -11.320312 12.4375 -11.59375 Z M 12.4375 -11.59375 "/></g></g></g><g fill="#016403" fill-opacity="1"><g transform="translate(66.743256, 23.347738)"><g><path d="M 10.015625 0 L 7.796875 -5.0625 L 5.734375 -5.0625 L 4.375 0 L -0.28125 0 L 4.234375 -16.734375 L 10.546875 -16.734375 C 11.929688 -16.734375 13.09375 -16.582031 14.03125 -16.28125 C 14.96875 -15.988281 15.71875 -15.566406 16.28125 -15.015625 C 16.726562 -14.566406 17.054688 -14.046875 17.265625 -13.453125 C 17.472656 -12.867188 17.578125 -12.242188 17.578125 -11.578125 C 17.578125 -10.796875 17.445312 -10.054688 17.1875 -9.359375 C 16.9375 -8.660156 16.539062 -8.050781 16 -7.53125 C 15.644531 -7.175781 15.1875 -6.832031 14.625 -6.5 C 14.070312 -6.164062 13.375 -5.878906 12.53125 -5.640625 L 15.125 0 Z M 6.6875 -8.703125 L 9.34375 -8.703125 C 9.976562 -8.703125 10.539062 -8.78125 11.03125 -8.9375 C 11.53125 -9.101562 11.925781 -9.328125 12.21875 -9.609375 C 12.40625 -9.796875 12.550781 -10.007812 12.65625 -10.25 C 12.757812 -10.488281 12.8125 -10.753906 12.8125 -11.046875 C 12.8125 -11.265625 12.773438 -11.460938 12.703125 -11.640625 C 12.628906 -11.828125 12.515625 -11.992188 12.359375 -12.140625 C 12.171875 -12.335938 11.90625 -12.484375 11.5625 -12.578125 C 11.226562 -12.679688 10.816406 -12.734375 10.328125 -12.734375 L 7.796875 -12.734375 Z M 6.6875 -8.703125 "/></g></g></g><g fill="#016403" fill-opacity="1"><g transform="translate(83.945713, 23.347738)"><g><path d="M 11.21875 -17.046875 C 12.40625 -17.046875 13.488281 -16.851562 14.46875 -16.46875 C 15.457031 -16.082031 16.300781 -15.554688 17 -14.890625 C 17.695312 -14.222656 18.238281 -13.429688 18.625 -12.515625 C 19.007812 -11.597656 19.203125 -10.613281 19.203125 -9.5625 C 19.203125 -8.269531 18.941406 -7.007812 18.421875 -5.78125 C 17.898438 -4.550781 17.1875 -3.484375 16.28125 -2.578125 C 15.40625 -1.722656 14.363281 -1.023438 13.15625 -0.484375 C 11.957031 0.046875 10.65625 0.3125 9.25 0.3125 C 8.050781 0.3125 6.960938 0.117188 5.984375 -0.265625 C 5.003906 -0.648438 4.164062 -1.175781 3.46875 -1.84375 C 2.769531 -2.507812 2.226562 -3.304688 1.84375 -4.234375 C 1.457031 -5.160156 1.265625 -6.148438 1.265625 -7.203125 C 1.265625 -8.484375 1.523438 -9.734375 2.046875 -10.953125 C 2.566406 -12.179688 3.28125 -13.25 4.1875 -14.15625 C 5.0625 -15.03125 6.097656 -15.726562 7.296875 -16.25 C 8.503906 -16.78125 9.8125 -17.046875 11.21875 -17.046875 Z M 9.65625 -3.84375 C 10.289062 -3.84375 10.878906 -3.96875 11.421875 -4.21875 C 11.960938 -4.476562 12.4375 -4.8125 12.84375 -5.21875 C 13.351562 -5.71875 13.753906 -6.328125 14.046875 -7.046875 C 14.335938 -7.765625 14.484375 -8.476562 14.484375 -9.1875 C 14.484375 -10.226562 14.164062 -11.101562 13.53125 -11.8125 C 12.90625 -12.53125 12 -12.890625 10.8125 -12.890625 C 10.164062 -12.890625 9.570312 -12.765625 9.03125 -12.515625 C 8.488281 -12.265625 8.019531 -11.941406 7.625 -11.546875 C 7.113281 -11.015625 6.707031 -10.390625 6.40625 -9.671875 C 6.113281 -8.960938 5.96875 -8.253906 5.96875 -7.546875 C 5.96875 -6.492188 6.28125 -5.613281 6.90625 -4.90625 C 7.539062 -4.195312 8.457031 -3.84375 9.65625 -3.84375 Z M 9.65625 -3.84375 "/></g></g></g><g fill="#016403" fill-opacity="1"><g transform="translate(103.394054, 23.347738)"><g><path d="M -0.28125 0 L 4.234375 -16.734375 L 9.6875 -16.734375 C 11.050781 -16.734375 12.195312 -16.59375 13.125 -16.3125 C 14.050781 -16.03125 14.816406 -15.582031 15.421875 -14.96875 C 15.867188 -14.53125 16.195312 -14.023438 16.40625 -13.453125 C 16.625 -12.878906 16.734375 -12.253906 16.734375 -11.578125 C 16.734375 -10.660156 16.582031 -9.828125 16.28125 -9.078125 C 15.976562 -8.328125 15.53125 -7.660156 14.9375 -7.078125 C 14.21875 -6.359375 13.300781 -5.800781 12.1875 -5.40625 C 11.070312 -5.007812 9.820312 -4.8125 8.4375 -4.8125 L 5.671875 -4.8125 L 4.375 0 Z M 11.515625 -12.21875 C 11.296875 -12.4375 11.015625 -12.59375 10.671875 -12.6875 C 10.328125 -12.789062 9.941406 -12.84375 9.515625 -12.84375 L 7.796875 -12.84375 L 6.625 -8.421875 L 8.390625 -8.421875 C 9.023438 -8.421875 9.59375 -8.503906 10.09375 -8.671875 C 10.601562 -8.835938 11.015625 -9.070312 11.328125 -9.375 C 11.535156 -9.59375 11.695312 -9.84375 11.8125 -10.125 C 11.925781 -10.40625 11.984375 -10.703125 11.984375 -11.015625 C 11.984375 -11.242188 11.945312 -11.460938 11.875 -11.671875 C 11.800781 -11.878906 11.679688 -12.0625 11.515625 -12.21875 Z M 11.515625 -12.21875 "/></g></g></g><g fill="#016403" fill-opacity="1"><g transform="translate(119.449689, 23.347738)"><g/></g></g><g fill="#016403" fill-opacity="1"><g transform="translate(126.067856, 23.347738)"><g><path d="M 3.640625 0 L 7.03125 -12.671875 L 2.03125 -12.671875 L 3.109375 -16.734375 L 17.765625 -16.734375 L 16.6875 -12.671875 L 11.671875 -12.671875 L 8.265625 0 Z M 3.640625 0 "/></g></g></g><g fill="#016403" fill-opacity="1"><g transform="translate(141.478394, 23.347738)"><g><path d="M 10.015625 0 L 7.796875 -5.0625 L 5.734375 -5.0625 L 4.375 0 L -0.28125 0 L 4.234375 -16.734375 L 10.546875 -16.734375 C 11.929688 -16.734375 13.09375 -16.582031 14.03125 -16.28125 C 14.96875 -15.988281 15.71875 -15.566406 16.28125 -15.015625 C 16.726562 -14.566406 17.054688 -14.046875 17.265625 -13.453125 C 17.472656 -12.867188 17.578125 -12.242188 17.578125 -11.578125 C 17.578125 -10.796875 17.445312 -10.054688 17.1875 -9.359375 C 16.9375 -8.660156 16.539062 -8.050781 16 -7.53125 C 15.644531 -7.175781 15.1875 -6.832031 14.625 -6.5 C 14.070312 -6.164062 13.375 -5.878906 12.53125 -5.640625 L 15.125 0 Z M 6.6875 -8.703125 L 9.34375 -8.703125 C 9.976562 -8.703125 10.539062 -8.78125 11.03125 -8.9375 C 11.53125 -9.101562 11.925781 -9.328125 12.21875 -9.609375 C 12.40625 -9.796875 12.550781 -10.007812 12.65625 -10.25 C 12.757812 -10.488281 12.8125 -10.753906 12.8125 -11.046875 C 12.8125 -11.265625 12.773438 -11.460938 12.703125 -11.640625 C 12.628906 -11.828125 12.515625 -11.992188 12.359375 -12.140625 C 12.171875 -12.335938 11.90625 -12.484375 11.5625 -12.578125 C 11.226562 -12.679688 10.816406 -12.734375 10.328125 -12.734375 L 7.796875 -12.734375 Z M 6.6875 -8.703125 "/></g></g></g><g fill="#016403" fill-opacity="1"><g transform="translate(158.680851, 23.347738)"><g><path d="M -1.765625 0 L 9.875 -16.859375 L 14.421875 -16.859375 L 17.015625 0 L 12.140625 0 L 11.734375 -3.015625 L 5.28125 -3.015625 L 3.28125 0 Z M 7.625 -6.625 L 11.375 -6.625 L 10.75 -11.40625 Z M 7.625 -6.625 "/></g></g></g><g fill="#016403" fill-opacity="1"><g transform="translate(177.197387, 23.347738)"><g><path d="M 9.125 0.328125 C 7.976562 0.328125 6.921875 0.160156 5.953125 -0.171875 C 4.984375 -0.515625 4.144531 -1.003906 3.4375 -1.640625 C 2.738281 -2.285156 2.191406 -3.0625 1.796875 -3.96875 C 1.410156 -4.875 1.21875 -5.882812 1.21875 -7 C 1.21875 -8.257812 1.472656 -9.507812 1.984375 -10.75 C 2.503906 -12 3.253906 -13.109375 4.234375 -14.078125 C 5.109375 -14.953125 6.179688 -15.664062 7.453125 -16.21875 C 8.734375 -16.78125 10.144531 -17.0625 11.6875 -17.0625 C 13.375 -17.0625 14.800781 -16.679688 15.96875 -15.921875 C 17.132812 -15.160156 17.960938 -14.132812 18.453125 -12.84375 L 14.4375 -10.6875 C 14.101562 -11.375 13.664062 -11.90625 13.125 -12.28125 C 12.582031 -12.664062 11.90625 -12.859375 11.09375 -12.859375 C 10.457031 -12.859375 9.851562 -12.726562 9.28125 -12.46875 C 8.707031 -12.21875 8.195312 -11.867188 7.75 -11.421875 C 7.238281 -10.898438 6.832031 -10.28125 6.53125 -9.5625 C 6.226562 -8.84375 6.078125 -8.09375 6.078125 -7.3125 C 6.078125 -6.257812 6.394531 -5.421875 7.03125 -4.796875 C 7.664062 -4.179688 8.460938 -3.875 9.421875 -3.875 C 10.148438 -3.875 10.789062 -4.019531 11.34375 -4.3125 C 11.90625 -4.601562 12.457031 -5.019531 13 -5.5625 L 16.140625 -2.796875 C 15.328125 -1.890625 14.347656 -1.140625 13.203125 -0.546875 C 12.066406 0.0351562 10.707031 0.328125 9.125 0.328125 Z M 9.125 0.328125 "/></g></g></g><g fill="#016403" fill-opacity="1"><g transform="translate(194.56709, 23.347738)"><g><path d="M -0.28125 0 L 4.234375 -16.734375 L 8.875 -16.734375 L 7.046875 -10.046875 L 13.984375 -16.734375 L 19.859375 -16.734375 L 11.984375 -9.421875 L 15.703125 0 L 10.703125 0 L 8.296875 -6.453125 L 5.375 -3.796875 L 4.375 0 Z M -0.28125 0 "/></g></g></g><g clip-path="url(#a6ff3e3ac0)"><g transform="matrix(1, 0, 0, 1, 71, 28)"><g clip-path="url(#23fb8c5b5d)"><g fill="#016403" fill-opacity="1"><g transform="translate(0.546563, 8.513653)"><g><path d="M 0.6875 -5.765625 L 2.9375 -5.765625 C 3.382812 -5.765625 3.796875 -5.691406 4.171875 -5.546875 C 4.554688 -5.398438 4.882812 -5.195312 5.15625 -4.9375 C 5.425781 -4.675781 5.632812 -4.367188 5.78125 -4.015625 C 5.925781 -3.671875 6 -3.300781 6 -2.90625 L 6 -2.875 C 6 -2.46875 5.925781 -2.085938 5.78125 -1.734375 C 5.632812 -1.390625 5.425781 -1.085938 5.15625 -0.828125 C 4.882812 -0.566406 4.554688 -0.363281 4.171875 -0.21875 C 3.796875 -0.0703125 3.382812 0 2.9375 0 L 0.6875 0 Z M 1.953125 -4.625 L 1.953125 -1.140625 L 2.9375 -1.140625 C 3.195312 -1.140625 3.429688 -1.179688 3.640625 -1.265625 C 3.859375 -1.347656 4.039062 -1.46875 4.1875 -1.625 C 4.34375 -1.78125 4.460938 -1.960938 4.546875 -2.171875 C 4.628906 -2.378906 4.671875 -2.609375 4.671875 -2.859375 L 4.671875 -2.875 C 4.671875 -3.132812 4.628906 -3.367188 4.546875 -3.578125 C 4.460938 -3.796875 4.34375 -3.976562 4.1875 -4.125 C 4.039062 -4.28125 3.859375 -4.398438 3.640625 -4.484375 C 3.429688 -4.578125 3.195312 -4.625 2.9375 -4.625 Z M 1.953125 -4.625 "/></g></g></g><g fill="#016403" fill-opacity="1"><g transform="translate(8.348179, 8.513653)"><g><path d="M 0.6875 -5.765625 L 5.046875 -5.765625 L 5.046875 -4.640625 L 1.953125 -4.640625 L 1.953125 -3.46875 L 4.671875 -3.46875 L 4.671875 -2.34375 L 1.953125 -2.34375 L 1.953125 -1.125 L 5.078125 -1.125 L 5.078125 0 L 0.6875 0 Z M 0.6875 -5.765625 "/></g></g></g><g fill="#016403" fill-opacity="1"><g transform="translate(15.227111, 8.513653)"><g><path d="M 0.6875 -5.765625 L 1.953125 -5.765625 L 1.953125 -1.15625 L 4.828125 -1.15625 L 4.828125 0 L 0.6875 0 Z M 0.6875 -5.765625 "/></g></g></g><g fill="#016403" fill-opacity="1"><g transform="translate(21.685894, 8.513653)"><g><path d="M 0.75 -5.765625 L 2.015625 -5.765625 L 2.015625 0 L 0.75 0 Z M 0.75 -5.765625 "/></g></g></g><g fill="#016403" fill-opacity="1"><g transform="translate(25.813249, 8.513653)"><g><path d="M 0.203125 -5.765625 L 1.59375 -5.765625 L 3.109375 -1.703125 L 4.609375 -5.765625 L 5.984375 -5.765625 L 3.640625 0.046875 L 2.53125 0.046875 Z M 0.203125 -5.765625 "/></g></g></g><g fill="#016403" fill-opacity="1"><g transform="translate(33.351241, 8.513653)"><g><path d="M 0.6875 -5.765625 L 5.046875 -5.765625 L 5.046875 -4.640625 L 1.953125 -4.640625 L 1.953125 -3.46875 L 4.671875 -3.46875 L 4.671875 -2.34375 L 1.953125 -2.34375 L 1.953125 -1.125 L 5.078125 -1.125 L 5.078125 0 L 0.6875 0 Z M 0.6875 -5.765625 "/></g></g></g><g fill="#016403" fill-opacity="1"><g transform="translate(40.230173, 8.513653)"><g><path d="M 0.6875 -5.765625 L 3.328125 -5.765625 C 4.054688 -5.765625 4.613281 -5.566406 5 -5.171875 C 5.332031 -4.847656 5.5 -4.410156 5.5 -3.859375 L 5.5 -3.84375 C 5.5 -3.375 5.382812 -2.992188 5.15625 -2.703125 C 4.925781 -2.410156 4.628906 -2.195312 4.265625 -2.0625 L 5.671875 0 L 4.1875 0 L 2.953125 -1.84375 L 1.953125 -1.84375 L 1.953125 0 L 0.6875 0 Z M 3.25 -2.96875 C 3.5625 -2.96875 3.800781 -3.039062 3.96875 -3.1875 C 4.132812 -3.332031 4.21875 -3.53125 4.21875 -3.78125 L 4.21875 -3.796875 C 4.21875 -4.066406 4.128906 -4.269531 3.953125 -4.40625 C 3.773438 -4.550781 3.53125 -4.625 3.21875 -4.625 L 1.953125 -4.625 L 1.953125 -2.96875 Z M 3.25 -2.96875 "/></g></g></g><g fill="#016403" fill-opacity="1"><g transform="translate(47.54573, 8.513653)"><g/></g></g><g fill="#016403" fill-opacity="1"><g transform="translate(51.376505, 8.513653)"><g><path d="M 0.25 -5.765625 L 1.609375 -5.765625 L 2.796875 -1.859375 L 4.09375 -5.78125 L 5.171875 -5.78125 L 6.46875 -1.859375 L 7.671875 -5.765625 L 8.984375 -5.765625 L 7.03125 0.046875 L 5.921875 0.046875 L 4.625 -3.734375 L 3.3125 0.046875 L 2.21875 0.046875 Z M 0.25 -5.765625 "/></g></g></g><g fill="#016403" fill-opacity="1"><g transform="translate(61.979131, 8.513653)"><g><path d="M 0.75 -5.765625 L 2.015625 -5.765625 L 2.015625 0 L 0.75 0 Z M 0.75 -5.765625 "/></g></g></g><g fill="#016403" fill-opacity="1"><g transform="translate(66.106486, 8.513653)"><g><path d="M 2.03125 -4.59375 L 0.28125 -4.59375 L 0.28125 -5.765625 L 5.0625 -5.765625 L 5.0625 -4.59375 L 3.296875 -4.59375 L 3.296875 0 L 2.03125 0 Z M 2.03125 -4.59375 "/></g></g></g><g fill="#016403" fill-opacity="1"><g transform="translate(72.804182, 8.513653)"><g><path d="M 0.6875 -5.765625 L 1.953125 -5.765625 L 1.953125 -3.484375 L 4.296875 -3.484375 L 4.296875 -5.765625 L 5.5625 -5.765625 L 5.5625 0 L 4.296875 0 L 4.296875 -2.3125 L 1.953125 -2.3125 L 1.953125 0 L 0.6875 0 Z M 0.6875 -5.765625 "/></g></g></g><g fill="#016403" fill-opacity="1"><g transform="translate(80.424564, 8.513653)"><g/></g></g><g fill="#016403" fill-opacity="1"><g transform="translate(84.255338, 8.513653)"><g><path d="M 2.03125 -4.59375 L 0.28125 -4.59375 L 0.28125 -5.765625 L 5.0625 -5.765625 L 5.0625 -4.59375 L 3.296875 -4.59375 L 3.296875 0 L 2.03125 0 Z M 2.03125 -4.59375 "/></g></g></g><g fill="#016403" fill-opacity="1"><g transform="translate(90.953035, 8.513653)"><g><path d="M 0.6875 -5.765625 L 3.328125 -5.765625 C 4.054688 -5.765625 4.613281 -5.566406 5 -5.171875 C 5.332031 -4.847656 5.5 -4.410156 5.5 -3.859375 L 5.5 -3.84375 C 5.5 -3.375 5.382812 -2.992188 5.15625 -2.703125 C 4.925781 -2.410156 4.628906 -2.195312 4.265625 -2.0625 L 5.671875 0 L 4.1875 0 L 2.953125 -1.84375 L 1.953125 -1.84375 L 1.953125 0 L 0.6875 0 Z M 3.25 -2.96875 C 3.5625 -2.96875 3.800781 -3.039062 3.96875 -3.1875 C 4.132812 -3.332031 4.21875 -3.53125 4.21875 -3.78125 L 4.21875 -3.796875 C 4.21875 -4.066406 4.128906 -4.269531 3.953125 -4.40625 C 3.773438 -4.550781 3.53125 -4.625 3.21875 -4.625 L 1.953125 -4.625 L 1.953125 -2.96875 Z M 3.25 -2.96875 "/></g></g></g><g fill="#016403" fill-opacity="1"><g transform="translate(98.268592, 8.513653)"><g><path d="M 3.09375 0.09375 C 2.320312 0.09375 1.710938 -0.117188 1.265625 -0.546875 C 0.816406 -0.972656 0.59375 -1.613281 0.59375 -2.46875 L 0.59375 -5.765625 L 1.875 -5.765625 L 1.875 -2.5 C 1.875 -2.03125 1.984375 -1.675781 2.203125 -1.4375 C 2.421875 -1.195312 2.722656 -1.078125 3.109375 -1.078125 C 3.503906 -1.078125 3.8125 -1.191406 4.03125 -1.421875 C 4.25 -1.648438 4.359375 -2 4.359375 -2.46875 L 4.359375 -5.765625 L 5.625 -5.765625 L 5.625 -2.515625 C 5.625 -2.078125 5.5625 -1.691406 5.4375 -1.359375 C 5.320312 -1.035156 5.15625 -0.765625 4.9375 -0.546875 C 4.71875 -0.335938 4.453125 -0.175781 4.140625 -0.0625 C 3.828125 0.0390625 3.476562 0.09375 3.09375 0.09375 Z M 3.09375 0.09375 "/></g></g></g><g fill="#016403" fill-opacity="1"><g transform="translate(105.856017, 8.513653)"><g><path d="M 2.734375 0.078125 C 2.296875 0.078125 1.863281 0.00390625 1.4375 -0.140625 C 1.019531 -0.296875 0.640625 -0.53125 0.296875 -0.84375 L 1.046875 -1.734375 C 1.304688 -1.523438 1.570312 -1.351562 1.84375 -1.21875 C 2.125 -1.09375 2.429688 -1.03125 2.765625 -1.03125 C 3.023438 -1.03125 3.226562 -1.078125 3.375 -1.171875 C 3.519531 -1.273438 3.59375 -1.410156 3.59375 -1.578125 L 3.59375 -1.59375 C 3.59375 -1.675781 3.578125 -1.75 3.546875 -1.8125 C 3.515625 -1.875 3.457031 -1.929688 3.375 -1.984375 C 3.289062 -2.046875 3.171875 -2.101562 3.015625 -2.15625 C 2.867188 -2.207031 2.675781 -2.265625 2.4375 -2.328125 C 2.144531 -2.398438 1.878906 -2.476562 1.640625 -2.5625 C 1.410156 -2.65625 1.210938 -2.765625 1.046875 -2.890625 C 0.878906 -3.023438 0.75 -3.1875 0.65625 -3.375 C 0.570312 -3.570312 0.53125 -3.8125 0.53125 -4.09375 L 0.53125 -4.109375 C 0.53125 -4.367188 0.578125 -4.601562 0.671875 -4.8125 C 0.773438 -5.03125 0.914062 -5.210938 1.09375 -5.359375 C 1.269531 -5.515625 1.476562 -5.632812 1.71875 -5.71875 C 1.96875 -5.800781 2.242188 -5.84375 2.546875 -5.84375 C 2.960938 -5.84375 3.347656 -5.78125 3.703125 -5.65625 C 4.054688 -5.53125 4.382812 -5.347656 4.6875 -5.109375 L 4.03125 -4.15625 C 3.769531 -4.332031 3.515625 -4.46875 3.265625 -4.5625 C 3.023438 -4.664062 2.78125 -4.71875 2.53125 -4.71875 C 2.28125 -4.71875 2.09375 -4.671875 1.96875 -4.578125 C 1.84375 -4.484375 1.78125 -4.363281 1.78125 -4.21875 L 1.78125 -4.203125 C 1.78125 -4.109375 1.796875 -4.023438 1.828125 -3.953125 C 1.867188 -3.890625 1.9375 -3.832031 2.03125 -3.78125 C 2.125 -3.726562 2.25 -3.675781 2.40625 -3.625 C 2.570312 -3.570312 2.78125 -3.515625 3.03125 -3.453125 C 3.320312 -3.367188 3.582031 -3.28125 3.8125 -3.1875 C 4.039062 -3.09375 4.234375 -2.976562 4.390625 -2.84375 C 4.546875 -2.707031 4.660156 -2.546875 4.734375 -2.359375 C 4.816406 -2.179688 4.859375 -1.96875 4.859375 -1.71875 L 4.859375 -1.703125 C 4.859375 -1.421875 4.804688 -1.164062 4.703125 -0.9375 C 4.597656 -0.71875 4.453125 -0.53125 4.265625 -0.375 C 4.078125 -0.226562 3.851562 -0.113281 3.59375 -0.03125 C 3.34375 0.0390625 3.054688 0.078125 2.734375 0.078125 Z M 2.734375 0.078125 "/></g></g></g><g fill="#016403" fill-opacity="1"><g transform="translate(112.487802, 8.513653)"><g><path d="M 2.03125 -4.59375 L 0.28125 -4.59375 L 0.28125 -5.765625 L 5.0625 -5.765625 L 5.0625 -4.59375 L 3.296875 -4.59375 L 3.296875 0 L 2.03125 0 Z M 2.03125 -4.59375 "/></g></g></g></g></g></g><g clip-path="url(#b683984fb6)"><path fill="#3e7f32" d="M 25.507812 35.039062 L 25.46875 35.039062 C 25.289062 35.039062 25.144531 35.039062 24.964844 35.039062 C 24.28125 35 23.488281 34.964844 22.660156 34.859375 L 22.804688 33.34375 C 23.632812 33.417969 24.390625 33.488281 25.039062 33.488281 C 25.183594 33.488281 25.324219 33.488281 25.433594 33.488281 L 25.46875 33.488281 L 25.46875 34.246094 L 25.542969 35 Z M 27.449219 34.820312 L 27.125 33.34375 C 27.992188 33.164062 28.710938 32.804688 29.324219 32.335938 L 30.257812 33.527344 C 29.464844 34.171875 28.53125 34.605469 27.449219 34.820312 Z M 20.789062 34.679688 C 19.851562 34.570312 18.917969 34.460938 18.015625 34.355469 L 18.234375 32.839844 C 19.132812 32.949219 20.035156 33.09375 20.96875 33.164062 Z M 16.179688 34.101562 C 15.101562 33.957031 14.164062 33.8125 13.445312 33.667969 L 13.695312 32.15625 C 14.417969 32.265625 15.351562 32.410156 16.433594 32.589844 Z M 31.664062 31.976562 L 30.367188 31.222656 C 30.726562 30.644531 30.90625 29.960938 30.90625 29.3125 C 30.90625 29.207031 30.90625 29.097656 30.90625 29.023438 L 32.417969 28.882812 C 32.417969 29.023438 32.453125 29.167969 32.453125 29.3125 C 32.382812 30.214844 32.128906 31.148438 31.664062 31.976562 Z M 30.402344 27.621094 C 30.007812 27.007812 29.394531 26.539062 28.636719 26.289062 L 29.105469 24.847656 C 30.1875 25.207031 31.085938 25.894531 31.664062 26.792969 Z M 27.019531 26 C 26.621094 25.964844 26.152344 25.964844 25.613281 25.964844 C 25.183594 25.964844 24.75 25.964844 24.246094 25.929688 L 24.28125 24.417969 C 24.75 24.417969 25.183594 24.453125 25.613281 24.453125 C 26.152344 24.453125 26.65625 24.488281 27.054688 24.488281 Z M 22.410156 25.855469 C 21.328125 25.785156 20.394531 25.640625 19.566406 25.460938 L 19.890625 23.984375 C 20.644531 24.164062 21.507812 24.273438 22.519531 24.34375 Z M 17.65625 24.847656 C 16.46875 24.308594 15.675781 23.550781 15.316406 22.582031 L 16.722656 22.039062 C 16.9375 22.617188 17.441406 23.085938 18.269531 23.480469 Z M 16.648438 20.636719 L 15.136719 20.347656 C 15.171875 20.238281 15.171875 20.132812 15.207031 20.023438 C 15.425781 19.089844 16.035156 18.261719 16.972656 17.648438 L 17.835938 18.90625 C 17.1875 19.339844 16.828125 19.808594 16.722656 20.382812 C 16.648438 20.457031 16.648438 20.527344 16.648438 20.636719 Z M 19.3125 18.1875 L 18.808594 16.746094 C 19.601562 16.460938 20.574219 16.242188 21.617188 16.0625 L 21.832031 17.574219 C 20.863281 17.753906 20.035156 17.9375 19.3125 18.1875 Z M 30.761719 17.648438 C 30.332031 17.539062 29.429688 17.433594 28.132812 17.359375 L 28.207031 15.847656 C 29.394531 15.917969 30.4375 16.027344 31.085938 16.171875 Z M 23.632812 17.394531 L 23.527344 15.882812 C 24.355469 15.8125 25.253906 15.777344 26.152344 15.777344 L 26.335938 15.777344 L 26.335938 17.289062 L 26.152344 17.289062 C 25.289062 17.289062 24.425781 17.324219 23.632812 17.394531 Z M 23.632812 17.394531 " fill-opacity="1" fill-rule="nonzero"/></g><g clip-path="url(#965337bcfc)"><path fill="#ff6d00" d="M 8.835938 29.3125 C 7.25 29.3125 5.957031 30.609375 5.957031 32.195312 C 5.957031 33.777344 7.25 35.074219 8.835938 35.074219 C 10.421875 35.074219 11.714844 33.777344 11.714844 32.195312 C 11.714844 30.609375 10.421875 29.3125 8.835938 29.3125 Z M 8.835938 29.3125 " fill-opacity="1" fill-rule="nonzero"/></g><path fill="#9bcc84" d="M 35.875 17.394531 C 35.875 16.386719 33.605469 15.59375 30.761719 15.59375 C 27.917969 15.59375 25.648438 16.386719 25.648438 17.394531 C 25.648438 18.402344 27.917969 19.195312 30.761719 19.195312 C 33.605469 19.195312 35.875 18.402344 35.875 17.394531 Z M 35.875 17.394531 " fill-opacity="1" fill-rule="nonzero"/><g clip-path="url(#f79c31c030)"><path fill="#ff6d00" d="M 30.761719 2.671875 C 27.882812 2.671875 25.578125 5.011719 25.578125 7.855469 C 25.578125 10.664062 30.4375 17.433594 30.65625 17.71875 C 30.691406 17.753906 30.726562 17.792969 30.796875 17.792969 C 30.835938 17.792969 30.90625 17.753906 30.941406 17.71875 C 31.160156 17.433594 36.019531 10.664062 36.019531 7.855469 C 35.949219 5.011719 33.644531 2.671875 30.761719 2.671875 Z M 32.707031 7.820312 C 32.707031 8.898438 31.84375 9.761719 30.761719 9.761719 C 29.683594 9.761719 28.820312 8.898438 28.820312 7.820312 C 28.820312 6.738281 29.683594 5.875 30.761719 5.875 C 31.84375 5.875 32.707031 6.738281 32.707031 7.820312 Z M 32.707031 7.820312 " fill-opacity="1" fill-rule="nonzero"/></g></svg>