<svg xmlns="http://www.w3.org/2000/svg" xmlns:xlink="http://www.w3.org/1999/xlink" width="40" zoomAndPan="magnify" viewBox="0 0 30 30.000001" height="40" preserveAspectRatio="xMidYMid meet" version="1.0"><defs><clipPath id="6ade4dcafa"><path d="M 0.484375 0 L 29.515625 0 L 29.515625 29.03125 L 0.484375 29.03125 Z M 0.484375 0 " clip-rule="nonzero"/></clipPath><clipPath id="b6aecb1d13"><path d="M 0.484375 0 L 29.515625 0 L 29.515625 29.03125 L 0.484375 29.03125 Z M 0.484375 0 " clip-rule="nonzero"/></clipPath><clipPath id="80e0aee823"><path d="M 15.023438 -0.726562 C 6.507812 -0.726562 -0.398438 6.179688 -0.398438 14.699219 C -0.398438 23.214844 6.507812 30.121094 15.023438 30.121094 C 23.542969 30.121094 30.449219 23.214844 30.449219 14.699219 C 30.449219 6.179688 23.542969 -0.726562 15.023438 -0.726562 Z M 15.023438 -0.726562 " clip-rule="nonzero"/></clipPath><clipPath id="3333f4af53"><path d="M 0.484375 0.0195312 L 29.445312 0.0195312 L 29.445312 29 L 0.484375 29 Z M 0.484375 0.0195312 " clip-rule="nonzero"/></clipPath><clipPath id="d21e342df1"><path d="M 15.019531 0.0195312 C 6.953125 0.0195312 0.414062 6.507812 0.414062 14.507812 C 0.414062 22.511719 6.953125 28.996094 15.019531 28.996094 C 23.089844 28.996094 29.628906 22.511719 29.628906 14.507812 C 29.628906 6.507812 23.089844 0.0195312 15.019531 0.0195312 Z M 15.019531 0.0195312 " clip-rule="nonzero"/></clipPath><linearGradient x1="0.21237" gradientTransform="matrix(0.608057, 0, 0, 0.608057, -0.00000000263765, -0.00000289865)" y1="-0.0556313" x2="65.853095" gradientUnits="userSpaceOnUse" y2="65.5841" id="eaf18dd7da"><stop stop-opacity="1" stop-color="rgb(60.691833%, 79.927063%, 51.683044%)" offset="0"/><stop stop-opacity="1" stop-color="rgb(60.40802%, 79.692078%, 51.4328%)" offset="0.00390625"/><stop stop-opacity="1" stop-color="rgb(60.125732%, 79.457092%, 51.182556%)" offset="0.0078125"/><stop stop-opacity="1" stop-color="rgb(59.841919%, 79.222107%, 50.932312%)" offset="0.0117187"/><stop stop-opacity="1" stop-color="rgb(59.558105%, 78.987122%, 50.682068%)" offset="0.015625"/><stop stop-opacity="1" stop-color="rgb(59.274292%, 78.752136%, 50.431824%)" offset="0.0195312"/><stop stop-opacity="1" stop-color="rgb(58.990479%, 78.517151%, 50.18158%)" offset="0.0234375"/><stop stop-opacity="1" stop-color="rgb(58.706665%, 78.282166%, 49.931335%)" offset="0.0273437"/><stop stop-opacity="1" stop-color="rgb(58.422852%, 78.048706%, 49.682617%)" offset="0.03125"/><stop stop-opacity="1" stop-color="rgb(58.139038%, 77.813721%, 49.432373%)" offset="0.0351562"/><stop stop-opacity="1" stop-color="rgb(57.855225%, 77.578735%, 49.182129%)" offset="0.0390625"/><stop stop-opacity="1" stop-color="rgb(57.571411%, 77.34375%, 48.931885%)" offset="0.0429688"/><stop stop-opacity="1" stop-color="rgb(57.287598%, 77.108765%, 48.681641%)" offset="0.046875"/><stop stop-opacity="1" stop-color="rgb(57.003784%, 76.873779%, 48.431396%)" offset="0.0507812"/><stop stop-opacity="1" stop-color="rgb(56.721497%, 76.638794%, 48.181152%)" offset="0.0546875"/><stop stop-opacity="1" stop-color="rgb(56.437683%, 76.403809%, 47.930908%)" offset="0.0585938"/><stop stop-opacity="1" stop-color="rgb(56.15387%, 76.168823%, 47.680664%)" offset="0.0625"/><stop stop-opacity="1" stop-color="rgb(55.870056%, 75.933838%, 47.43042%)" offset="0.0664062"/><stop stop-opacity="1" stop-color="rgb(55.586243%, 75.698853%, 47.181702%)" offset="0.0703125"/><stop stop-opacity="1" stop-color="rgb(55.302429%, 75.463867%, 46.931458%)" offset="0.0742187"/><stop stop-opacity="1" stop-color="rgb(55.018616%, 75.228882%, 46.681213%)" offset="0.078125"/><stop stop-opacity="1" stop-color="rgb(54.734802%, 74.993896%, 46.430969%)" offset="0.0820312"/><stop stop-opacity="1" stop-color="rgb(54.450989%, 74.758911%, 46.180725%)" offset="0.0859375"/><stop stop-opacity="1" stop-color="rgb(54.167175%, 74.523926%, 45.930481%)" offset="0.0898438"/><stop stop-opacity="1" stop-color="rgb(53.883362%, 74.28894%, 45.680237%)" offset="0.09375"/><stop stop-opacity="1" stop-color="rgb(53.599548%, 74.053955%, 45.429993%)" offset="0.0976562"/><stop stop-opacity="1" stop-color="rgb(53.315735%, 73.81897%, 45.179749%)" offset="0.101562"/><stop stop-opacity="1" stop-color="rgb(53.031921%, 73.583984%, 44.929504%)" offset="0.105469"/><stop stop-opacity="1" stop-color="rgb(52.749634%, 73.348999%, 44.680786%)" offset="0.109375"/><stop stop-opacity="1" stop-color="rgb(52.46582%, 73.114014%, 44.430542%)" offset="0.113281"/><stop stop-opacity="1" stop-color="rgb(52.182007%, 72.879028%, 44.180298%)" offset="0.117187"/><stop stop-opacity="1" stop-color="rgb(51.898193%, 72.644043%, 43.930054%)" offset="0.121094"/><stop stop-opacity="1" stop-color="rgb(51.61438%, 72.410583%, 43.67981%)" offset="0.125"/><stop stop-opacity="1" stop-color="rgb(51.330566%, 72.175598%, 43.429565%)" offset="0.128906"/><stop stop-opacity="1" stop-color="rgb(51.046753%, 71.940613%, 43.179321%)" offset="0.132812"/><stop stop-opacity="1" stop-color="rgb(50.762939%, 71.705627%, 42.929077%)" offset="0.136719"/><stop stop-opacity="1" stop-color="rgb(50.479126%, 71.470642%, 42.678833%)" offset="0.140625"/><stop stop-opacity="1" stop-color="rgb(50.195312%, 71.235657%, 42.428589%)" offset="0.144531"/><stop stop-opacity="1" stop-color="rgb(49.911499%, 71.000671%, 42.179871%)" offset="0.148437"/><stop stop-opacity="1" stop-color="rgb(49.627686%, 70.765686%, 41.929626%)" offset="0.152344"/><stop stop-opacity="1" stop-color="rgb(49.343872%, 70.530701%, 41.679382%)" offset="0.15625"/><stop stop-opacity="1" stop-color="rgb(49.060059%, 70.295715%, 41.429138%)" offset="0.160156"/><stop stop-opacity="1" stop-color="rgb(48.777771%, 70.06073%, 41.178894%)" offset="0.164062"/><stop stop-opacity="1" stop-color="rgb(48.493958%, 69.825745%, 40.92865%)" offset="0.167969"/><stop stop-opacity="1" stop-color="rgb(48.210144%, 69.590759%, 40.678406%)" offset="0.171875"/><stop stop-opacity="1" stop-color="rgb(47.926331%, 69.355774%, 40.428162%)" offset="0.175781"/><stop stop-opacity="1" stop-color="rgb(47.642517%, 69.120789%, 40.177917%)" offset="0.179688"/><stop stop-opacity="1" stop-color="rgb(47.358704%, 68.885803%, 39.927673%)" offset="0.183594"/><stop stop-opacity="1" stop-color="rgb(47.07489%, 68.650818%, 39.678955%)" offset="0.1875"/><stop stop-opacity="1" stop-color="rgb(46.791077%, 68.415833%, 39.428711%)" offset="0.191406"/><stop stop-opacity="1" stop-color="rgb(46.507263%, 68.180847%, 39.178467%)" offset="0.195312"/><stop stop-opacity="1" stop-color="rgb(46.22345%, 67.945862%, 38.928223%)" offset="0.199219"/><stop stop-opacity="1" stop-color="rgb(45.939636%, 67.710876%, 38.677979%)" offset="0.203125"/><stop stop-opacity="1" stop-color="rgb(45.655823%, 67.475891%, 38.427734%)" offset="0.207031"/><stop stop-opacity="1" stop-color="rgb(45.373535%, 67.240906%, 38.17749%)" offset="0.210937"/><stop stop-opacity="1" stop-color="rgb(45.089722%, 67.00592%, 37.927246%)" offset="0.214844"/><stop stop-opacity="1" stop-color="rgb(44.805908%, 66.772461%, 37.677002%)" offset="0.21875"/><stop stop-opacity="1" stop-color="rgb(44.522095%, 66.537476%, 37.426758%)" offset="0.222656"/><stop stop-opacity="1" stop-color="rgb(44.238281%, 66.30249%, 37.17804%)" offset="0.226562"/><stop stop-opacity="1" stop-color="rgb(43.954468%, 66.067505%, 36.927795%)" offset="0.230469"/><stop stop-opacity="1" stop-color="rgb(43.670654%, 65.83252%, 36.677551%)" offset="0.234375"/><stop stop-opacity="1" stop-color="rgb(43.386841%, 65.597534%, 36.427307%)" offset="0.238281"/><stop stop-opacity="1" stop-color="rgb(43.103027%, 65.362549%, 36.177063%)" offset="0.242187"/><stop stop-opacity="1" stop-color="rgb(42.819214%, 65.127563%, 35.926819%)" offset="0.246094"/><stop stop-opacity="1" stop-color="rgb(42.5354%, 64.892578%, 35.676575%)" offset="0.25"/><stop stop-opacity="1" stop-color="rgb(42.251587%, 64.657593%, 35.426331%)" offset="0.253906"/><stop stop-opacity="1" stop-color="rgb(41.967773%, 64.422607%, 35.176086%)" offset="0.257812"/><stop stop-opacity="1" stop-color="rgb(41.68396%, 64.187622%, 34.925842%)" offset="0.261719"/><stop stop-opacity="1" stop-color="rgb(41.401672%, 63.952637%, 34.677124%)" offset="0.265625"/><stop stop-opacity="1" stop-color="rgb(41.117859%, 63.717651%, 34.42688%)" offset="0.269531"/><stop stop-opacity="1" stop-color="rgb(40.834045%, 63.482666%, 34.176636%)" offset="0.273438"/><stop stop-opacity="1" stop-color="rgb(40.550232%, 63.247681%, 33.926392%)" offset="0.277344"/><stop stop-opacity="1" stop-color="rgb(40.266418%, 63.012695%, 33.676147%)" offset="0.28125"/><stop stop-opacity="1" stop-color="rgb(39.982605%, 62.77771%, 33.425903%)" offset="0.285156"/><stop stop-opacity="1" stop-color="rgb(39.698792%, 62.542725%, 33.175659%)" offset="0.289062"/><stop stop-opacity="1" stop-color="rgb(39.414978%, 62.307739%, 32.925415%)" offset="0.292969"/><stop stop-opacity="1" stop-color="rgb(39.131165%, 62.072754%, 32.675171%)" offset="0.296875"/><stop stop-opacity="1" stop-color="rgb(38.847351%, 61.837769%, 32.424927%)" offset="0.300781"/><stop stop-opacity="1" stop-color="rgb(38.563538%, 61.602783%, 32.176208%)" offset="0.304688"/><stop stop-opacity="1" stop-color="rgb(38.279724%, 61.367798%, 31.925964%)" offset="0.308594"/><stop stop-opacity="1" stop-color="rgb(37.997437%, 61.132812%, 31.67572%)" offset="0.3125"/><stop stop-opacity="1" stop-color="rgb(37.713623%, 60.897827%, 31.425476%)" offset="0.316406"/><stop stop-opacity="1" stop-color="rgb(37.42981%, 60.664368%, 31.175232%)" offset="0.320313"/><stop stop-opacity="1" stop-color="rgb(37.145996%, 60.429382%, 30.924988%)" offset="0.324219"/><stop stop-opacity="1" stop-color="rgb(36.862183%, 60.194397%, 30.674744%)" offset="0.328125"/><stop stop-opacity="1" stop-color="rgb(36.578369%, 59.959412%, 30.4245%)" offset="0.332031"/><stop stop-opacity="1" stop-color="rgb(36.294556%, 59.724426%, 30.174255%)" offset="0.335938"/><stop stop-opacity="1" stop-color="rgb(36.010742%, 59.489441%, 29.924011%)" offset="0.339844"/><stop stop-opacity="1" stop-color="rgb(35.726929%, 59.254456%, 29.675293%)" offset="0.34375"/><stop stop-opacity="1" stop-color="rgb(35.443115%, 59.01947%, 29.425049%)" offset="0.347656"/><stop stop-opacity="1" stop-color="rgb(35.159302%, 58.784485%, 29.174805%)" offset="0.351563"/><stop stop-opacity="1" stop-color="rgb(34.875488%, 58.5495%, 28.924561%)" offset="0.355469"/><stop stop-opacity="1" stop-color="rgb(34.591675%, 58.314514%, 28.674316%)" offset="0.359375"/><stop stop-opacity="1" stop-color="rgb(34.307861%, 58.079529%, 28.424072%)" offset="0.363281"/><stop stop-opacity="1" stop-color="rgb(34.025574%, 57.844543%, 28.173828%)" offset="0.367188"/><stop stop-opacity="1" stop-color="rgb(33.74176%, 57.609558%, 27.923584%)" offset="0.371094"/><stop stop-opacity="1" stop-color="rgb(33.457947%, 57.374573%, 27.67334%)" offset="0.375"/><stop stop-opacity="1" stop-color="rgb(33.174133%, 57.139587%, 27.423096%)" offset="0.378906"/><stop stop-opacity="1" stop-color="rgb(32.89032%, 56.904602%, 27.174377%)" offset="0.382812"/><stop stop-opacity="1" stop-color="rgb(32.606506%, 56.669617%, 26.924133%)" offset="0.386719"/><stop stop-opacity="1" stop-color="rgb(32.322693%, 56.434631%, 26.673889%)" offset="0.390625"/><stop stop-opacity="1" stop-color="rgb(32.038879%, 56.199646%, 26.423645%)" offset="0.394531"/><stop stop-opacity="1" stop-color="rgb(31.755066%, 55.964661%, 26.173401%)" offset="0.398437"/><stop stop-opacity="1" stop-color="rgb(31.471252%, 55.729675%, 25.923157%)" offset="0.402344"/><stop stop-opacity="1" stop-color="rgb(31.187439%, 55.49469%, 25.672913%)" offset="0.40625"/><stop stop-opacity="1" stop-color="rgb(30.903625%, 55.259705%, 25.422668%)" offset="0.410156"/><stop stop-opacity="1" stop-color="rgb(30.621338%, 55.026245%, 25.172424%)" offset="0.414062"/><stop stop-opacity="1" stop-color="rgb(30.337524%, 54.79126%, 24.92218%)" offset="0.417969"/><stop stop-opacity="1" stop-color="rgb(30.053711%, 54.556274%, 24.673462%)" offset="0.421875"/><stop stop-opacity="1" stop-color="rgb(29.769897%, 54.321289%, 24.423218%)" offset="0.425781"/><stop stop-opacity="1" stop-color="rgb(29.486084%, 54.086304%, 24.172974%)" offset="0.429687"/><stop stop-opacity="1" stop-color="rgb(29.202271%, 53.851318%, 23.922729%)" offset="0.433594"/><stop stop-opacity="1" stop-color="rgb(28.918457%, 53.616333%, 23.672485%)" offset="0.4375"/><stop stop-opacity="1" stop-color="rgb(28.634644%, 53.381348%, 23.422241%)" offset="0.441406"/><stop stop-opacity="1" stop-color="rgb(28.35083%, 53.146362%, 23.171997%)" offset="0.445312"/><stop stop-opacity="1" stop-color="rgb(28.067017%, 52.911377%, 22.921753%)" offset="0.449219"/><stop stop-opacity="1" stop-color="rgb(27.783203%, 52.676392%, 22.671509%)" offset="0.453125"/><stop stop-opacity="1" stop-color="rgb(27.49939%, 52.441406%, 22.421265%)" offset="0.457031"/><stop stop-opacity="1" stop-color="rgb(27.215576%, 52.206421%, 22.172546%)" offset="0.460938"/><stop stop-opacity="1" stop-color="rgb(26.931763%, 51.971436%, 21.922302%)" offset="0.464844"/><stop stop-opacity="1" stop-color="rgb(26.649475%, 51.73645%, 21.672058%)" offset="0.46875"/><stop stop-opacity="1" stop-color="rgb(26.365662%, 51.501465%, 21.421814%)" offset="0.472656"/><stop stop-opacity="1" stop-color="rgb(26.081848%, 51.266479%, 21.17157%)" offset="0.476562"/><stop stop-opacity="1" stop-color="rgb(25.798035%, 51.031494%, 20.921326%)" offset="0.480469"/><stop stop-opacity="1" stop-color="rgb(25.514221%, 50.796509%, 20.671082%)" offset="0.484375"/><stop stop-opacity="1" stop-color="rgb(25.230408%, 50.561523%, 20.420837%)" offset="0.488281"/><stop stop-opacity="1" stop-color="rgb(24.946594%, 50.326538%, 20.170593%)" offset="0.492188"/><stop stop-opacity="1" stop-color="rgb(24.662781%, 50.091553%, 19.920349%)" offset="0.496094"/><stop stop-opacity="1" stop-color="rgb(24.378967%, 49.856567%, 19.671631%)" offset="0.5"/><stop stop-opacity="1" stop-color="rgb(24.59259%, 50.033569%, 19.859314%)" offset="0.503906"/><stop stop-opacity="1" stop-color="rgb(24.806213%, 50.210571%, 20.046997%)" offset="0.507812"/><stop stop-opacity="1" stop-color="rgb(25.090027%, 50.445557%, 20.297241%)" offset="0.511719"/><stop stop-opacity="1" stop-color="rgb(25.37384%, 50.680542%, 20.547485%)" offset="0.515625"/><stop stop-opacity="1" stop-color="rgb(25.657654%, 50.915527%, 20.797729%)" offset="0.519531"/><stop stop-opacity="1" stop-color="rgb(25.941467%, 51.150513%, 21.047974%)" offset="0.523438"/><stop stop-opacity="1" stop-color="rgb(26.225281%, 51.385498%, 21.298218%)" offset="0.527344"/><stop stop-opacity="1" stop-color="rgb(26.509094%, 51.620483%, 21.548462%)" offset="0.53125"/><stop stop-opacity="1" stop-color="rgb(26.792908%, 51.855469%, 21.798706%)" offset="0.535156"/><stop stop-opacity="1" stop-color="rgb(27.076721%, 52.090454%, 22.04895%)" offset="0.539062"/><stop stop-opacity="1" stop-color="rgb(27.360535%, 52.325439%, 22.297668%)" offset="0.542969"/><stop stop-opacity="1" stop-color="rgb(27.644348%, 52.560425%, 22.547913%)" offset="0.546875"/><stop stop-opacity="1" stop-color="rgb(27.926636%, 52.79541%, 22.798157%)" offset="0.550781"/><stop stop-opacity="1" stop-color="rgb(28.210449%, 53.030396%, 23.048401%)" offset="0.554688"/><stop stop-opacity="1" stop-color="rgb(28.494263%, 53.265381%, 23.298645%)" offset="0.558594"/><stop stop-opacity="1" stop-color="rgb(28.778076%, 53.500366%, 23.548889%)" offset="0.5625"/><stop stop-opacity="1" stop-color="rgb(29.06189%, 53.735352%, 23.799133%)" offset="0.566406"/><stop stop-opacity="1" stop-color="rgb(29.345703%, 53.970337%, 24.049377%)" offset="0.570312"/><stop stop-opacity="1" stop-color="rgb(29.629517%, 54.205322%, 24.299622%)" offset="0.574219"/><stop stop-opacity="1" stop-color="rgb(29.91333%, 54.440308%, 24.549866%)" offset="0.578125"/><stop stop-opacity="1" stop-color="rgb(30.197144%, 54.675293%, 24.798584%)" offset="0.582031"/><stop stop-opacity="1" stop-color="rgb(30.480957%, 54.910278%, 25.048828%)" offset="0.585938"/><stop stop-opacity="1" stop-color="rgb(30.764771%, 55.143738%, 25.299072%)" offset="0.589844"/><stop stop-opacity="1" stop-color="rgb(31.048584%, 55.378723%, 25.549316%)" offset="0.59375"/><stop stop-opacity="1" stop-color="rgb(31.330872%, 55.613708%, 25.799561%)" offset="0.597656"/><stop stop-opacity="1" stop-color="rgb(31.614685%, 55.848694%, 26.049805%)" offset="0.601562"/><stop stop-opacity="1" stop-color="rgb(31.898499%, 56.083679%, 26.300049%)" offset="0.605469"/><stop stop-opacity="1" stop-color="rgb(32.182312%, 56.318665%, 26.550293%)" offset="0.609375"/><stop stop-opacity="1" stop-color="rgb(32.466125%, 56.55365%, 26.800537%)" offset="0.613281"/><stop stop-opacity="1" stop-color="rgb(32.749939%, 56.788635%, 27.050781%)" offset="0.617188"/><stop stop-opacity="1" stop-color="rgb(33.033752%, 57.023621%, 27.2995%)" offset="0.621094"/><stop stop-opacity="1" stop-color="rgb(33.317566%, 57.258606%, 27.549744%)" offset="0.625"/><stop stop-opacity="1" stop-color="rgb(33.601379%, 57.493591%, 27.799988%)" offset="0.628906"/><stop stop-opacity="1" stop-color="rgb(33.885193%, 57.728577%, 28.050232%)" offset="0.632813"/><stop stop-opacity="1" stop-color="rgb(34.169006%, 57.963562%, 28.300476%)" offset="0.636719"/><stop stop-opacity="1" stop-color="rgb(34.45282%, 58.198547%, 28.55072%)" offset="0.640625"/><stop stop-opacity="1" stop-color="rgb(34.736633%, 58.433533%, 28.800964%)" offset="0.644531"/><stop stop-opacity="1" stop-color="rgb(35.020447%, 58.668518%, 29.051208%)" offset="0.648438"/><stop stop-opacity="1" stop-color="rgb(35.302734%, 58.903503%, 29.301453%)" offset="0.652344"/><stop stop-opacity="1" stop-color="rgb(35.586548%, 59.138489%, 29.551697%)" offset="0.65625"/><stop stop-opacity="1" stop-color="rgb(35.870361%, 59.373474%, 29.800415%)" offset="0.660156"/><stop stop-opacity="1" stop-color="rgb(36.154175%, 59.608459%, 30.050659%)" offset="0.664063"/><stop stop-opacity="1" stop-color="rgb(36.437988%, 59.843445%, 30.300903%)" offset="0.667969"/><stop stop-opacity="1" stop-color="rgb(36.721802%, 60.07843%, 30.551147%)" offset="0.671875"/><stop stop-opacity="1" stop-color="rgb(37.005615%, 60.313416%, 30.801392%)" offset="0.675781"/><stop stop-opacity="1" stop-color="rgb(37.289429%, 60.548401%, 31.051636%)" offset="0.679688"/><stop stop-opacity="1" stop-color="rgb(37.573242%, 60.78186%, 31.30188%)" offset="0.683594"/><stop stop-opacity="1" stop-color="rgb(37.857056%, 61.016846%, 31.552124%)" offset="0.6875"/><stop stop-opacity="1" stop-color="rgb(38.140869%, 61.251831%, 31.802368%)" offset="0.691406"/><stop stop-opacity="1" stop-color="rgb(38.424683%, 61.486816%, 32.052612%)" offset="0.695313"/><stop stop-opacity="1" stop-color="rgb(38.70697%, 61.721802%, 32.302856%)" offset="0.699219"/><stop stop-opacity="1" stop-color="rgb(38.990784%, 61.956787%, 32.553101%)" offset="0.703125"/><stop stop-opacity="1" stop-color="rgb(39.274597%, 62.191772%, 32.801819%)" offset="0.707031"/><stop stop-opacity="1" stop-color="rgb(39.558411%, 62.426758%, 33.052063%)" offset="0.710938"/><stop stop-opacity="1" stop-color="rgb(39.842224%, 62.661743%, 33.302307%)" offset="0.714844"/><stop stop-opacity="1" stop-color="rgb(40.126038%, 62.896729%, 33.552551%)" offset="0.71875"/><stop stop-opacity="1" stop-color="rgb(40.409851%, 63.131714%, 33.802795%)" offset="0.722656"/><stop stop-opacity="1" stop-color="rgb(40.693665%, 63.366699%, 34.05304%)" offset="0.726563"/><stop stop-opacity="1" stop-color="rgb(40.977478%, 63.601685%, 34.303284%)" offset="0.730469"/><stop stop-opacity="1" stop-color="rgb(41.261292%, 63.83667%, 34.553528%)" offset="0.734375"/><stop stop-opacity="1" stop-color="rgb(41.545105%, 64.071655%, 34.803772%)" offset="0.738281"/><stop stop-opacity="1" stop-color="rgb(41.828918%, 64.306641%, 35.054016%)" offset="0.742188"/><stop stop-opacity="1" stop-color="rgb(42.112732%, 64.541626%, 35.302734%)" offset="0.746094"/><stop stop-opacity="1" stop-color="rgb(42.396545%, 64.776611%, 35.552979%)" offset="0.75"/><stop stop-opacity="1" stop-color="rgb(42.678833%, 65.011597%, 35.803223%)" offset="0.753906"/><stop stop-opacity="1" stop-color="rgb(42.962646%, 65.246582%, 36.053467%)" offset="0.757812"/><stop stop-opacity="1" stop-color="rgb(43.24646%, 65.481567%, 36.303711%)" offset="0.761719"/><stop stop-opacity="1" stop-color="rgb(43.530273%, 65.716553%, 36.553955%)" offset="0.765625"/><stop stop-opacity="1" stop-color="rgb(43.814087%, 65.951538%, 36.804199%)" offset="0.769531"/><stop stop-opacity="1" stop-color="rgb(44.0979%, 66.186523%, 37.054443%)" offset="0.773437"/><stop stop-opacity="1" stop-color="rgb(44.381714%, 66.421509%, 37.304688%)" offset="0.777344"/><stop stop-opacity="1" stop-color="rgb(44.665527%, 66.656494%, 37.554932%)" offset="0.78125"/><stop stop-opacity="1" stop-color="rgb(44.949341%, 66.889954%, 37.80365%)" offset="0.785156"/><stop stop-opacity="1" stop-color="rgb(45.233154%, 67.124939%, 38.053894%)" offset="0.789062"/><stop stop-opacity="1" stop-color="rgb(45.516968%, 67.359924%, 38.304138%)" offset="0.792969"/><stop stop-opacity="1" stop-color="rgb(45.800781%, 67.59491%, 38.554382%)" offset="0.796875"/><stop stop-opacity="1" stop-color="rgb(46.084595%, 67.829895%, 38.804626%)" offset="0.800781"/><stop stop-opacity="1" stop-color="rgb(46.368408%, 68.06488%, 39.054871%)" offset="0.804687"/><stop stop-opacity="1" stop-color="rgb(46.650696%, 68.299866%, 39.305115%)" offset="0.808594"/><stop stop-opacity="1" stop-color="rgb(46.934509%, 68.534851%, 39.555359%)" offset="0.8125"/><stop stop-opacity="1" stop-color="rgb(47.218323%, 68.769836%, 39.805603%)" offset="0.816406"/><stop stop-opacity="1" stop-color="rgb(47.502136%, 69.004822%, 40.055847%)" offset="0.820312"/><stop stop-opacity="1" stop-color="rgb(47.78595%, 69.239807%, 40.304565%)" offset="0.824219"/><stop stop-opacity="1" stop-color="rgb(48.069763%, 69.474792%, 40.55481%)" offset="0.828125"/><stop stop-opacity="1" stop-color="rgb(48.353577%, 69.709778%, 40.805054%)" offset="0.832031"/><stop stop-opacity="1" stop-color="rgb(48.63739%, 69.944763%, 41.055298%)" offset="0.835937"/><stop stop-opacity="1" stop-color="rgb(48.921204%, 70.179749%, 41.305542%)" offset="0.839844"/><stop stop-opacity="1" stop-color="rgb(49.205017%, 70.414734%, 41.555786%)" offset="0.84375"/><stop stop-opacity="1" stop-color="rgb(49.488831%, 70.649719%, 41.80603%)" offset="0.847656"/><stop stop-opacity="1" stop-color="rgb(49.772644%, 70.884705%, 42.056274%)" offset="0.851562"/><stop stop-opacity="1" stop-color="rgb(50.054932%, 71.11969%, 42.306519%)" offset="0.855469"/><stop stop-opacity="1" stop-color="rgb(50.338745%, 71.354675%, 42.556763%)" offset="0.859375"/><stop stop-opacity="1" stop-color="rgb(50.622559%, 71.589661%, 42.805481%)" offset="0.863281"/><stop stop-opacity="1" stop-color="rgb(50.906372%, 71.824646%, 43.055725%)" offset="0.867187"/><stop stop-opacity="1" stop-color="rgb(51.190186%, 72.059631%, 43.305969%)" offset="0.871094"/><stop stop-opacity="1" stop-color="rgb(51.473999%, 72.294617%, 43.556213%)" offset="0.875"/><stop stop-opacity="1" stop-color="rgb(51.757812%, 72.528076%, 43.806458%)" offset="0.878906"/><stop stop-opacity="1" stop-color="rgb(52.041626%, 72.763062%, 44.056702%)" offset="0.882812"/><stop stop-opacity="1" stop-color="rgb(52.325439%, 72.998047%, 44.306946%)" offset="0.886719"/><stop stop-opacity="1" stop-color="rgb(52.609253%, 73.233032%, 44.55719%)" offset="0.890625"/><stop stop-opacity="1" stop-color="rgb(52.893066%, 73.468018%, 44.807434%)" offset="0.894531"/><stop stop-opacity="1" stop-color="rgb(53.17688%, 73.703003%, 45.057678%)" offset="0.898438"/><stop stop-opacity="1" stop-color="rgb(53.460693%, 73.937988%, 45.306396%)" offset="0.902344"/><stop stop-opacity="1" stop-color="rgb(53.744507%, 74.172974%, 45.556641%)" offset="0.90625"/><stop stop-opacity="1" stop-color="rgb(54.026794%, 74.407959%, 45.806885%)" offset="0.910156"/><stop stop-opacity="1" stop-color="rgb(54.310608%, 74.642944%, 46.057129%)" offset="0.914062"/><stop stop-opacity="1" stop-color="rgb(54.594421%, 74.87793%, 46.307373%)" offset="0.917969"/><stop stop-opacity="1" stop-color="rgb(54.878235%, 75.112915%, 46.557617%)" offset="0.921875"/><stop stop-opacity="1" stop-color="rgb(55.162048%, 75.3479%, 46.807861%)" offset="0.925781"/><stop stop-opacity="1" stop-color="rgb(55.445862%, 75.582886%, 47.058105%)" offset="0.929688"/><stop stop-opacity="1" stop-color="rgb(55.729675%, 75.817871%, 47.30835%)" offset="0.933594"/><stop stop-opacity="1" stop-color="rgb(56.013489%, 76.052856%, 47.558594%)" offset="0.9375"/><stop stop-opacity="1" stop-color="rgb(56.297302%, 76.287842%, 47.807312%)" offset="0.941406"/><stop stop-opacity="1" stop-color="rgb(56.581116%, 76.522827%, 48.057556%)" offset="0.945312"/><stop stop-opacity="1" stop-color="rgb(56.864929%, 76.757812%, 48.3078%)" offset="0.949219"/><stop stop-opacity="1" stop-color="rgb(57.148743%, 76.992798%, 48.558044%)" offset="0.953125"/><stop stop-opacity="1" stop-color="rgb(57.43103%, 77.227783%, 48.808289%)" offset="0.957031"/><stop stop-opacity="1" stop-color="rgb(57.714844%, 77.462769%, 49.058533%)" offset="0.960938"/><stop stop-opacity="1" stop-color="rgb(57.998657%, 77.697754%, 49.308777%)" offset="0.964844"/><stop stop-opacity="1" stop-color="rgb(58.282471%, 77.932739%, 49.559021%)" offset="0.96875"/><stop stop-opacity="1" stop-color="rgb(58.566284%, 78.167725%, 49.809265%)" offset="0.972656"/><stop stop-opacity="1" stop-color="rgb(58.850098%, 78.40271%, 50.059509%)" offset="0.976562"/><stop stop-opacity="1" stop-color="rgb(59.133911%, 78.636169%, 50.308228%)" offset="0.980469"/><stop stop-opacity="1" stop-color="rgb(59.417725%, 78.871155%, 50.558472%)" offset="0.984375"/><stop stop-opacity="1" stop-color="rgb(59.701538%, 79.10614%, 50.808716%)" offset="0.988281"/><stop stop-opacity="1" stop-color="rgb(59.985352%, 79.341125%, 51.05896%)" offset="0.992188"/><stop stop-opacity="1" stop-color="rgb(60.269165%, 79.576111%, 51.309204%)" offset="0.996094"/><stop stop-opacity="1" stop-color="rgb(60.552979%, 79.811096%, 51.559448%)" offset="1"/></linearGradient><clipPath id="0e6a68385e"><path d="M 2.046875 1.640625 L 28.054688 1.640625 L 28.054688 27.75 L 2.046875 27.75 Z M 2.046875 1.640625 " clip-rule="nonzero"/></clipPath><clipPath id="d4f2458deb"><path d="M 15.050781 1.640625 C 7.867188 1.640625 2.046875 7.480469 2.046875 14.683594 C 2.046875 21.890625 7.867188 27.730469 15.050781 27.730469 C 22.234375 27.730469 28.054688 21.890625 28.054688 14.683594 C 28.054688 7.480469 22.234375 1.640625 15.050781 1.640625 Z M 15.050781 1.640625 " clip-rule="nonzero"/></clipPath><clipPath id="d60f5c7903"><path d="M 0.046875 0.640625 L 26.054688 0.640625 L 26.054688 26.75 L 0.046875 26.75 Z M 0.046875 0.640625 " clip-rule="nonzero"/></clipPath><clipPath id="ebdd7ed785"><path d="M 13.050781 0.640625 C 5.867188 0.640625 0.046875 6.480469 0.046875 13.683594 C 0.046875 20.890625 5.867188 26.730469 13.050781 26.730469 C 20.234375 26.730469 26.054688 20.890625 26.054688 13.683594 C 26.054688 6.480469 20.234375 0.640625 13.050781 0.640625 Z M 13.050781 0.640625 " clip-rule="nonzero"/></clipPath><clipPath id="59fb7f0c7f"><rect x="0" width="27" y="0" height="27"/></clipPath><clipPath id="4d7e5b0c81"><path d="M 2.046875 1.640625 L 28.175781 1.640625 L 28.175781 27.769531 L 2.046875 27.769531 Z M 2.046875 1.640625 " clip-rule="nonzero"/></clipPath><clipPath id="1f06fddca0"><path d="M 15.046875 1.640625 C 7.867188 1.640625 2.046875 7.476562 2.046875 14.679688 C 2.046875 21.882812 7.867188 27.722656 15.046875 27.722656 C 22.230469 27.722656 28.050781 21.882812 28.050781 14.679688 C 28.050781 7.476562 22.230469 1.640625 15.046875 1.640625 Z M 15.046875 1.640625 " clip-rule="nonzero"/></clipPath><clipPath id="c2db78b400"><path d="M 4.886719 6.746094 L 25.210938 6.746094 L 25.210938 19.808594 L 4.886719 19.808594 Z M 4.886719 6.746094 " clip-rule="nonzero"/></clipPath><clipPath id="f1d6ec31fb"><path d="M 17 14 L 25 14 L 25 19.808594 L 17 19.808594 Z M 17 14 " clip-rule="nonzero"/></clipPath><clipPath id="8a40dabef6"><path d="M 23 10 L 25.210938 10 L 25.210938 13 L 23 13 Z M 23 10 " clip-rule="nonzero"/></clipPath><clipPath id="17f2354a93"><path d="M 4.886719 6.746094 L 25.210938 6.746094 L 25.210938 19.808594 L 4.886719 19.808594 Z M 4.886719 6.746094 " clip-rule="nonzero"/></clipPath><clipPath id="746a97839f"><path d="M 5 16 L 25 16 L 25 19.808594 L 5 19.808594 Z M 5 16 " clip-rule="nonzero"/></clipPath></defs><g clip-path="url(#6ade4dcafa)"><path fill="#ffffff" d="M 0.484375 0 L 29.515625 0 L 29.515625 29.03125 L 0.484375 29.03125 Z M 0.484375 0 " fill-opacity="1" fill-rule="nonzero"/><path fill="#ffffff" d="M 0.484375 0 L 29.515625 0 L 29.515625 29.03125 L 0.484375 29.03125 Z M 0.484375 0 " fill-opacity="1" fill-rule="nonzero"/></g><g clip-path="url(#b6aecb1d13)"><g clip-path="url(#80e0aee823)"><path stroke-linecap="butt" transform="matrix(0.725806, 0, 0, 0.725806, -0.399261, -0.725804)" fill="none" stroke-linejoin="miter" d="M 21.249051 -0.0010445 C 9.516412 -0.0010445 0.00113393 9.514233 0.00113393 21.252254 C 0.00113393 32.984893 9.516412 42.500171 21.249051 42.500171 C 32.987072 42.500171 42.50235 32.984893 42.50235 21.252254 C 42.50235 9.514233 32.987072 -0.0010445 21.249051 -0.0010445 Z M 21.249051 -0.0010445 " stroke="#ffffff" stroke-width="4" stroke-opacity="1" stroke-miterlimit="4"/></g></g><g clip-path="url(#3333f4af53)"><g clip-path="url(#d21e342df1)"><path stroke-linecap="butt" transform="matrix(0.725806, 0, 0, 0.725806, 0.414698, 0.0206547)" fill="none" stroke-linejoin="miter" d="M 20.122213 -0.00154784 C 9.008498 -0.00154784 -0.000876194 8.937861 -0.000876194 19.960083 C -0.000876194 30.987687 9.008498 39.921714 20.122213 39.921714 C 31.24131 39.921714 40.250684 30.987687 40.250684 19.960083 C 40.250684 8.937861 31.24131 -0.00154784 20.122213 -0.00154784 Z M 20.122213 -0.00154784 " stroke="url(#eaf18dd7da)" stroke-width="4" stroke-miterlimit="4"/></g></g><g clip-path="url(#0e6a68385e)"><g clip-path="url(#d4f2458deb)"><g transform="matrix(1, 0, 0, 1, 2, 1)"><g clip-path="url(#59fb7f0c7f)"><g clip-path="url(#d60f5c7903)"><g clip-path="url(#ebdd7ed785)"><path fill="#3e7f32" d="M 0.046875 0.640625 L 26.054688 0.640625 L 26.054688 26.75 L 0.046875 26.75 Z M 0.046875 0.640625 " fill-opacity="1" fill-rule="nonzero"/></g></g></g></g></g></g><g clip-path="url(#4d7e5b0c81)"><g clip-path="url(#1f06fddca0)"><path stroke-linecap="butt" transform="matrix(0.725806, 0, 0, 0.725806, 2.046564, 1.639279)" fill="none" stroke-linejoin="miter" d="M 17.91154 0.00185431 C 8.019526 0.00185431 0.000429099 8.042479 0.000429099 17.966785 C 0.000429099 27.891091 8.019526 35.937098 17.91154 35.937098 C 27.808936 35.937098 35.828034 27.891091 35.828034 17.966785 C 35.828034 8.042479 27.808936 0.00185431 17.91154 0.00185431 Z M 17.91154 0.00185431 " stroke="#ffffff" stroke-width="4" stroke-opacity="1" stroke-miterlimit="4"/></g></g><g clip-path="url(#c2db78b400)"><path fill="#ffffff" d="M 25.117188 12.152344 C 25.015625 12.378906 24.863281 12.539062 24.703125 12.585938 C 24.644531 12.601562 24.59375 12.601562 24.542969 12.589844 C 24.519531 12.601562 24.492188 12.609375 24.46875 12.613281 C 24.390625 12.628906 24.316406 12.621094 24.234375 12.589844 C 24.125 12.777344 24.011719 12.960938 23.929688 13.085938 C 23.929688 13.101562 23.941406 13.136719 23.960938 13.164062 C 24.28125 13.675781 24.113281 14.316406 23.992188 14.660156 C 23.960938 14.746094 23.902344 14.800781 23.8125 14.824219 C 23.777344 14.835938 23.738281 14.839844 23.699219 14.839844 C 23.585938 14.839844 23.46875 14.800781 23.375 14.746094 L 24.472656 16.6875 L 23.511719 17.050781 L 24.652344 19.796875 L 5.242188 19.796875 L 5.707031 18.859375 L 4.886719 19.164062 L 8.726562 11.441406 L 9.777344 11.113281 C 9.632812 10.917969 9.511719 10.714844 9.40625 10.5 C 9.21875 10.21875 9.066406 9.921875 8.945312 9.613281 C 8.699219 8.96875 8.867188 8.289062 9.421875 7.652344 C 9.96875 7.023438 10.648438 6.753906 11.386719 6.875 C 12.007812 6.972656 12.421875 7.304688 12.632812 7.859375 C 12.8125 8.070312 12.941406 8.347656 13.011719 8.683594 C 13.023438 8.71875 13.027344 8.757812 13.03125 8.792969 C 13.03125 8.839844 13.03125 8.878906 13.03125 8.917969 C 13.03125 8.933594 13.03125 8.953125 13.03125 8.96875 C 13.042969 9.285156 12.929688 9.589844 12.808594 9.871094 C 12.738281 10.035156 12.667969 10.1875 12.585938 10.339844 L 16.464844 11.730469 L 20.648438 9.929688 L 20.667969 9.96875 L 21.992188 12.308594 C 22.257812 12.1875 22.554688 12.144531 22.851562 12.1875 C 22.902344 12.117188 22.945312 12.050781 22.996094 11.980469 C 23.035156 11.933594 23.074219 11.875 23.113281 11.816406 C 23.09375 11.804688 23.078125 11.796875 23.058594 11.785156 C 22.988281 11.75 22.933594 11.722656 22.875 11.679688 C 22.773438 11.609375 22.703125 11.515625 22.683594 11.40625 C 22.664062 11.304688 22.6875 11.199219 22.75 11.109375 C 22.769531 11.082031 22.789062 11.058594 22.816406 11.039062 C 22.839844 10.972656 22.902344 10.902344 23.003906 10.820312 C 23.175781 10.675781 23.53125 10.609375 23.726562 10.746094 C 23.960938 10.902344 24.183594 11.0625 24.398438 11.214844 C 24.570312 11.335938 24.742188 11.460938 24.925781 11.585938 C 25.132812 11.726562 25.210938 11.953125 25.117188 12.152344 Z M 25.117188 12.152344 " fill-opacity="1" fill-rule="nonzero"/></g><path fill="#f26934" d="M 6.074219 18.054688 L 9.167969 11.847656 L 10.101562 11.511719 C 10.007812 11.410156 9.921875 11.304688 9.835938 11.195312 L 8.796875 11.519531 L 5.089844 18.984375 L 5.773438 18.738281 L 11.351562 16.71875 L 11.402344 16.1875 L 6.125 18.035156 Z M 6.074219 18.054688 " fill-opacity="1" fill-rule="nonzero"/><g clip-path="url(#f1d6ec31fb)"><path fill="#f26934" d="M 23.171875 14.660156 C 22.96875 14.523438 22.765625 14.382812 22.5625 14.246094 L 22.414062 14.417969 L 22.363281 14.480469 L 22.695312 15.089844 L 23.3125 16.242188 L 23.191406 16.285156 L 17.855469 18.296875 L 18.003906 19.015625 L 23.46875 16.96875 L 24.320312 16.648438 L 23.222656 14.699219 C 23.210938 14.683594 23.191406 14.675781 23.171875 14.660156 Z M 23.171875 14.660156 " fill-opacity="1" fill-rule="nonzero"/></g><path fill="#f26934" d="M 12.28125 10.871094 L 16.527344 12.320312 L 16.425781 11.820312 L 12.539062 10.429688 C 12.457031 10.582031 12.371094 10.730469 12.28125 10.871094 Z M 12.28125 10.871094 " fill-opacity="1" fill-rule="nonzero"/><path fill="#f26934" d="M 20.304688 10.632812 L 20.453125 10.90625 L 21.410156 12.695312 C 21.460938 12.660156 21.515625 12.628906 21.574219 12.605469 C 21.578125 12.601562 21.578125 12.59375 21.582031 12.59375 C 21.597656 12.578125 21.617188 12.558594 21.636719 12.542969 C 21.71875 12.46875 21.8125 12.410156 21.90625 12.359375 L 20.609375 10.058594 L 16.527344 11.816406 L 16.628906 12.320312 Z M 20.304688 10.632812 " fill-opacity="1" fill-rule="nonzero"/><path fill="#f26934" d="M 11.503906 16.179688 L 11.453125 16.703125 L 17.902344 18.992188 L 17.757812 18.289062 Z M 11.503906 16.179688 " fill-opacity="1" fill-rule="nonzero"/><path fill="#f26934" d="M 16.542969 14.902344 L 16.796875 14.890625 L 16.800781 14.988281 L 16.546875 15 Z M 16.542969 14.902344 " fill-opacity="1" fill-rule="nonzero"/><path fill="#f26934" d="M 16.035156 14.925781 L 16.289062 14.914062 L 16.292969 15.015625 L 16.042969 15.027344 Z M 16.035156 14.925781 " fill-opacity="1" fill-rule="nonzero"/><path fill="#f26934" d="M 14.660156 12.332031 L 14.574219 12.390625 C 14.613281 12.453125 14.65625 12.523438 14.691406 12.605469 L 14.78125 12.566406 C 14.742188 12.480469 14.699219 12.398438 14.660156 12.332031 Z M 14.660156 12.332031 " fill-opacity="1" fill-rule="nonzero"/><path fill="#f26934" d="M 15.53125 14.945312 L 15.785156 14.933594 L 15.789062 15.035156 L 15.535156 15.046875 Z M 15.53125 14.945312 " fill-opacity="1" fill-rule="nonzero"/><path fill="#f26934" d="M 14.996094 13.570312 C 15.011719 13.523438 15.019531 13.472656 15.019531 13.429688 C 15.019531 13.386719 15.015625 13.34375 15 13.304688 L 14.988281 13.269531 L 14.953125 13.269531 L 14.953125 13.3125 L 14.902344 13.324219 L 14.910156 13.367188 L 14.914062 13.367188 C 14.917969 13.386719 14.917969 13.414062 14.917969 13.433594 C 14.917969 13.46875 14.914062 13.507812 14.898438 13.542969 Z M 14.996094 13.570312 " fill-opacity="1" fill-rule="nonzero"/><path fill="#f26934" d="M 15.023438 14.972656 L 15.277344 14.960938 L 15.28125 15.058594 L 15.027344 15.070312 Z M 15.023438 14.972656 " fill-opacity="1" fill-rule="nonzero"/><path fill="#f26934" d="M 11.828125 13.726562 L 11.734375 13.714844 L 11.722656 13.816406 L 11.820312 13.820312 Z M 11.828125 13.726562 " fill-opacity="1" fill-rule="nonzero"/><path fill="#f26934" d="M 13.265625 11.875 L 13.519531 11.871094 L 13.519531 11.96875 L 13.265625 11.972656 Z M 13.265625 11.875 " fill-opacity="1" fill-rule="nonzero"/><path fill="#f26934" d="M 12.074219 13.847656 L 12.082031 13.75 L 12.335938 13.773438 L 12.324219 13.875 Z M 12.074219 13.847656 " fill-opacity="1" fill-rule="nonzero"/><path fill="#f26934" d="M 17.554688 14.027344 L 17.695312 13.820312 L 17.78125 13.875 L 17.636719 14.082031 Z M 17.554688 14.027344 " fill-opacity="1" fill-rule="nonzero"/><path fill="#f26934" d="M 12.488281 15.085938 L 12.738281 15.074219 L 12.746094 15.175781 L 12.492188 15.1875 Z M 12.488281 15.085938 " fill-opacity="1" fill-rule="nonzero"/><path fill="#f26934" d="M 11.726562 15.121094 L 11.601562 15.125 L 11.589844 15.226562 L 11.734375 15.222656 Z M 11.726562 15.121094 " fill-opacity="1" fill-rule="nonzero"/><path fill="#f26934" d="M 12.992188 15.0625 L 13.246094 15.050781 L 13.25 15.152344 L 13 15.160156 Z M 12.992188 15.0625 " fill-opacity="1" fill-rule="nonzero"/><path fill="#f26934" d="M 14.335938 13.921875 C 14.265625 13.9375 14.191406 13.945312 14.128906 13.945312 C 14.121094 13.945312 14.113281 13.945312 14.113281 13.945312 L 14.097656 13.945312 L 14.085938 14.046875 L 14.101562 14.046875 C 14.113281 14.046875 14.117188 14.046875 14.128906 14.046875 C 14.199219 14.046875 14.273438 14.035156 14.355469 14.019531 Z M 14.335938 13.921875 " fill-opacity="1" fill-rule="nonzero"/><path fill="#f26934" d="M 14.007812 15.015625 L 14.261719 15.003906 L 14.265625 15.105469 L 14.011719 15.117188 Z M 14.007812 15.015625 " fill-opacity="1" fill-rule="nonzero"/><path fill="#f26934" d="M 13.585938 13.992188 L 13.597656 13.894531 L 13.847656 13.917969 L 13.839844 14.019531 Z M 13.585938 13.992188 " fill-opacity="1" fill-rule="nonzero"/><path fill="#f26934" d="M 14.019531 11.972656 L 14.035156 11.871094 C 14.015625 11.867188 14 11.867188 13.980469 11.867188 L 13.976562 11.867188 L 13.773438 11.871094 L 13.773438 11.972656 L 13.96875 11.96875 C 13.984375 11.96875 14 11.96875 14.019531 11.972656 Z M 14.019531 11.972656 " fill-opacity="1" fill-rule="nonzero"/><path fill="#f26934" d="M 13.5 15.042969 L 13.753906 15.03125 L 13.757812 15.128906 L 13.503906 15.140625 Z M 13.5 15.042969 " fill-opacity="1" fill-rule="nonzero"/><path fill="#f26934" d="M 12.574219 13.894531 L 12.582031 13.796875 L 12.835938 13.820312 L 12.828125 13.917969 Z M 12.574219 13.894531 " fill-opacity="1" fill-rule="nonzero"/><path fill="#f26934" d="M 14.765625 13.714844 C 14.710938 13.765625 14.644531 13.804688 14.5625 13.839844 L 14.605469 13.929688 C 14.691406 13.890625 14.765625 13.839844 14.828125 13.789062 Z M 14.765625 13.714844 " fill-opacity="1" fill-rule="nonzero"/><path fill="#f26934" d="M 14.949219 13.046875 C 14.929688 12.960938 14.902344 12.882812 14.878906 12.800781 L 14.78125 12.832031 C 14.808594 12.90625 14.832031 12.988281 14.851562 13.066406 Z M 14.949219 13.046875 " fill-opacity="1" fill-rule="nonzero"/><path fill="#f26934" d="M 13.082031 13.941406 L 13.089844 13.84375 L 13.34375 13.867188 L 13.332031 13.964844 Z M 13.082031 13.941406 " fill-opacity="1" fill-rule="nonzero"/><path fill="#f26934" d="M 11.984375 15.105469 L 12.238281 15.097656 L 12.242188 15.195312 L 11.988281 15.207031 Z M 11.984375 15.105469 " fill-opacity="1" fill-rule="nonzero"/><path fill="#f26934" d="M 14.496094 12.128906 C 14.429688 12.0625 14.359375 12.003906 14.289062 11.960938 L 14.238281 12.046875 C 14.304688 12.082031 14.367188 12.132812 14.425781 12.191406 Z M 14.496094 12.128906 " fill-opacity="1" fill-rule="nonzero"/><path fill="#f26934" d="M 14.515625 14.992188 L 14.769531 14.980469 L 14.773438 15.082031 L 14.519531 15.089844 Z M 14.515625 14.992188 " fill-opacity="1" fill-rule="nonzero"/><path fill="#f26934" d="M 17.035156 14.785156 L 16.984375 14.859375 L 17.058594 14.910156 Z M 17.035156 14.785156 " fill-opacity="1" fill-rule="nonzero"/><path fill="#f26934" d="M 11.058594 13.75 L 11.070312 13.652344 L 11.320312 13.675781 L 11.3125 13.777344 Z M 11.058594 13.75 " fill-opacity="1" fill-rule="nonzero"/><path fill="#f26934" d="M 19.273438 12.625 C 19.335938 12.671875 19.386719 12.730469 19.417969 12.800781 L 19.507812 12.761719 C 19.46875 12.679688 19.410156 12.605469 19.335938 12.550781 Z M 19.273438 12.625 " fill-opacity="1" fill-rule="nonzero"/><path fill="#f26934" d="M 18.40625 12.78125 L 18.492188 12.835938 L 18.566406 12.734375 C 18.585938 12.699219 18.617188 12.675781 18.640625 12.644531 L 18.574219 12.570312 C 18.539062 12.601562 18.507812 12.636719 18.480469 12.675781 Z M 18.40625 12.78125 " fill-opacity="1" fill-rule="nonzero"/><path fill="#f26934" d="M 19.507812 13.03125 L 19.601562 12.992188 L 19.699219 13.222656 L 19.605469 13.261719 Z M 19.507812 13.03125 " fill-opacity="1" fill-rule="nonzero"/><path fill="#f26934" d="M 18.8125 12.4375 L 18.839844 12.535156 C 18.878906 12.523438 18.925781 12.519531 18.972656 12.519531 C 19 12.519531 19.035156 12.523438 19.066406 12.53125 L 19.085938 12.429688 C 19.046875 12.417969 19.011719 12.417969 18.972656 12.417969 C 18.914062 12.417969 18.863281 12.429688 18.8125 12.4375 Z M 18.8125 12.4375 " fill-opacity="1" fill-rule="nonzero"/><path fill="#f26934" d="M 12.980469 11.875 C 12.980469 11.910156 12.972656 11.941406 12.949219 11.976562 L 13.011719 11.976562 L 13.011719 11.875 Z M 12.980469 11.875 " fill-opacity="1" fill-rule="nonzero"/><path fill="#f26934" d="M 17.835938 13.609375 L 17.980469 13.402344 L 18.0625 13.460938 L 17.921875 13.667969 Z M 17.835938 13.609375 " fill-opacity="1" fill-rule="nonzero"/><path fill="#f26934" d="M 11.632812 13.703125 L 11.578125 13.699219 L 11.566406 13.800781 L 11.621094 13.804688 Z M 11.632812 13.703125 " fill-opacity="1" fill-rule="nonzero"/><path fill="#f26934" d="M 18.121094 13.195312 L 18.265625 12.988281 L 18.347656 13.042969 L 18.207031 13.25 Z M 18.121094 13.195312 " fill-opacity="1" fill-rule="nonzero"/><path fill="#f26934" d="M 19.710938 13.492188 L 19.804688 13.453125 L 19.902344 13.683594 L 19.808594 13.726562 Z M 19.710938 13.492188 " fill-opacity="1" fill-rule="nonzero"/><path fill="#f26934" d="M 17.113281 14.667969 L 17.144531 14.804688 L 17.210938 14.703125 L 17.128906 14.648438 Z M 17.113281 14.667969 " fill-opacity="1" fill-rule="nonzero"/><path fill="#f26934" d="M 17.269531 14.441406 L 17.414062 14.234375 L 17.496094 14.292969 L 17.355469 14.5 Z M 17.269531 14.441406 " fill-opacity="1" fill-rule="nonzero"/><path fill="#f26934" d="M 11.488281 15.230469 L 11.5 15.132812 L 11.476562 15.132812 L 11.480469 15.230469 Z M 11.488281 15.230469 " fill-opacity="1" fill-rule="nonzero"/><path fill="#f26934" d="M 19.910156 13.957031 L 20 13.917969 L 20.101562 14.148438 L 20.007812 14.1875 Z M 19.910156 13.957031 " fill-opacity="1" fill-rule="nonzero"/><path fill="#f26934" d="M 20.113281 14.417969 L 20.207031 14.378906 L 20.304688 14.609375 L 20.214844 14.648438 Z M 20.113281 14.417969 " fill-opacity="1" fill-rule="nonzero"/><path fill="#f26934" d="M 8.925781 14.546875 L 9.039062 14.324219 L 9.132812 14.367188 L 9.015625 14.59375 Z M 8.925781 14.546875 " fill-opacity="1" fill-rule="nonzero"/><path fill="#f26934" d="M 10.242188 13.570312 C 10.179688 13.558594 10.121094 13.554688 10.054688 13.558594 L 10.066406 13.660156 C 10.121094 13.65625 10.171875 13.65625 10.226562 13.664062 L 10.308594 13.675781 L 10.320312 13.574219 Z M 10.242188 13.570312 " fill-opacity="1" fill-rule="nonzero"/><path fill="#f26934" d="M 10.035156 15.65625 L 10.269531 15.566406 L 10.308594 15.660156 L 10.070312 15.75 Z M 10.035156 15.65625 " fill-opacity="1" fill-rule="nonzero"/><path fill="#f26934" d="M 9.359375 13.914062 C 9.300781 13.972656 9.238281 14.03125 9.175781 14.097656 L 9.253906 14.160156 C 9.308594 14.101562 9.371094 14.042969 9.425781 13.984375 Z M 9.359375 13.914062 " fill-opacity="1" fill-rule="nonzero"/><path fill="#f26934" d="M 9.5625 15.835938 L 9.800781 15.746094 L 9.835938 15.839844 L 9.597656 15.929688 Z M 9.5625 15.835938 " fill-opacity="1" fill-rule="nonzero"/><path fill="#f26934" d="M 9.351562 16.027344 L 9.363281 16.019531 L 9.328125 15.925781 L 9.320312 15.929688 C 9.25 15.957031 9.175781 15.960938 9.109375 15.945312 L 9.089844 16.046875 C 9.121094 16.050781 9.152344 16.054688 9.183594 16.054688 C 9.234375 16.054688 9.292969 16.046875 9.351562 16.027344 Z M 9.351562 16.027344 " fill-opacity="1" fill-rule="nonzero"/><path fill="#f26934" d="M 9.789062 13.628906 C 9.714844 13.660156 9.640625 13.703125 9.5625 13.753906 L 9.617188 13.839844 C 9.691406 13.789062 9.761719 13.753906 9.832031 13.726562 Z M 9.789062 13.628906 " fill-opacity="1" fill-rule="nonzero"/><path fill="#f26934" d="M 8.6875 14.992188 L 8.804688 14.769531 L 8.894531 14.8125 L 8.777344 15.039062 Z M 8.6875 14.992188 " fill-opacity="1" fill-rule="nonzero"/><path fill="#f26934" d="M 10.511719 15.480469 L 10.75 15.390625 L 10.785156 15.484375 L 10.546875 15.574219 Z M 10.511719 15.480469 " fill-opacity="1" fill-rule="nonzero"/><path fill="#f26934" d="M 10.558594 13.699219 L 10.570312 13.601562 L 10.820312 13.625 L 10.8125 13.726562 Z M 10.558594 13.699219 " fill-opacity="1" fill-rule="nonzero"/><path fill="#f26934" d="M 10.984375 15.300781 L 11.21875 15.210938 L 11.257812 15.304688 L 11.019531 15.394531 Z M 10.984375 15.300781 " fill-opacity="1" fill-rule="nonzero"/><path fill="#f26934" d="M 11.855469 11.324219 C 11.972656 11.167969 12.082031 11.007812 12.183594 10.84375 C 12.277344 10.695312 12.363281 10.550781 12.445312 10.398438 C 12.453125 10.386719 12.457031 10.371094 12.46875 10.355469 C 12.480469 10.339844 12.484375 10.324219 12.496094 10.308594 C 12.574219 10.152344 12.652344 10 12.71875 9.835938 C 12.835938 9.566406 12.945312 9.273438 12.933594 8.972656 C 12.933594 8.957031 12.933594 8.9375 12.933594 8.921875 C 12.933594 8.882812 12.933594 8.84375 12.933594 8.808594 C 12.929688 8.777344 12.925781 8.742188 12.921875 8.710938 C 12.878906 8.511719 12.8125 8.335938 12.734375 8.179688 C 12.707031 8.128906 12.675781 8.078125 12.640625 8.035156 C 12.609375 7.996094 12.582031 7.960938 12.550781 7.925781 C 12.332031 7.679688 12.039062 7.527344 11.65625 7.464844 C 11.550781 7.445312 11.4375 7.441406 11.335938 7.441406 C 10.757812 7.441406 10.226562 7.703125 9.785156 8.210938 C 9.257812 8.816406 9.097656 9.460938 9.328125 10.070312 C 9.378906 10.203125 9.4375 10.335938 9.5 10.460938 C 9.5625 10.582031 9.628906 10.695312 9.699219 10.8125 C 9.753906 10.90625 9.820312 10.996094 9.886719 11.089844 C 9.898438 11.101562 9.90625 11.117188 9.917969 11.128906 C 9.921875 11.132812 9.929688 11.144531 9.933594 11.148438 C 9.9375 11.152344 9.941406 11.164062 9.949219 11.167969 C 10.03125 11.273438 10.117188 11.378906 10.210938 11.480469 C 10.28125 11.554688 10.355469 11.628906 10.429688 11.699219 C 10.449219 11.722656 10.46875 11.742188 10.492188 11.761719 C 10.570312 11.835938 10.660156 11.910156 10.75 11.980469 C 11.035156 12.214844 11.140625 12.191406 11.429688 11.871094 C 11.539062 11.746094 11.640625 11.621094 11.742188 11.488281 C 11.773438 11.433594 11.816406 11.378906 11.855469 11.324219 Z M 11.777344 8.5 C 11.960938 8.65625 12.0625 8.886719 12.066406 9.148438 C 12.066406 9.167969 12.066406 9.183594 12.066406 9.203125 C 12.039062 9.765625 11.539062 10.214844 11.089844 10.273438 C 11.042969 10.28125 10.992188 10.285156 10.949219 10.285156 C 10.730469 10.285156 10.53125 10.214844 10.378906 10.082031 C 10.242188 9.964844 10.152344 9.800781 10.121094 9.617188 C 10.117188 9.589844 10.109375 9.566406 10.109375 9.542969 C 10.109375 9.515625 10.105469 9.492188 10.105469 9.464844 C 10.105469 9.457031 10.105469 9.445312 10.105469 9.441406 C 10.105469 8.863281 10.621094 8.375 11.085938 8.332031 C 11.285156 8.300781 11.480469 8.332031 11.648438 8.417969 C 11.667969 8.425781 11.6875 8.441406 11.707031 8.453125 C 11.726562 8.464844 11.75 8.480469 11.769531 8.496094 C 11.769531 8.496094 11.773438 8.496094 11.777344 8.5 Z M 11.777344 8.5 " fill-opacity="1" fill-rule="nonzero"/><path fill="#f26934" d="M 21.957031 14.949219 L 21.886719 15.03125 C 21.925781 15.042969 21.964844 15.054688 22 15.070312 L 22.039062 14.976562 C 22.007812 14.972656 21.984375 14.960938 21.957031 14.949219 Z M 21.957031 14.949219 " fill-opacity="1" fill-rule="nonzero"/><path fill="#f26934" d="M 19.675781 15.519531 C 19.621094 15.59375 19.574219 15.667969 19.550781 15.746094 L 19.644531 15.78125 C 19.671875 15.710938 19.707031 15.644531 19.757812 15.578125 Z M 19.675781 15.519531 " fill-opacity="1" fill-rule="nonzero"/><path fill="#f26934" d="M 20.507812 16.6875 L 20.519531 16.589844 C 20.429688 16.582031 20.351562 16.574219 20.28125 16.554688 L 20.257812 16.652344 C 20.335938 16.667969 20.421875 16.683594 20.507812 16.6875 Z M 20.507812 16.6875 " fill-opacity="1" fill-rule="nonzero"/><path fill="#f26934" d="M 21.269531 16.636719 C 21.347656 16.617188 21.4375 16.597656 21.511719 16.574219 L 21.480469 16.476562 C 21.40625 16.503906 21.324219 16.523438 21.242188 16.542969 Z M 21.269531 16.636719 " fill-opacity="1" fill-rule="nonzero"/><path fill="#f26934" d="M 20.761719 16.695312 C 20.84375 16.695312 20.929688 16.6875 21.015625 16.679688 L 21.003906 16.578125 C 20.917969 16.589844 20.835938 16.59375 20.761719 16.59375 Z M 20.761719 16.695312 " fill-opacity="1" fill-rule="nonzero"/><path fill="#f26934" d="M 20.046875 16.488281 C 19.96875 16.457031 19.898438 16.417969 19.839844 16.378906 L 19.777344 16.457031 C 19.84375 16.507812 19.917969 16.546875 20.003906 16.582031 Z M 20.046875 16.488281 " fill-opacity="1" fill-rule="nonzero"/><path fill="#f26934" d="M 22.503906 15.816406 C 22.53125 15.746094 22.546875 15.667969 22.546875 15.597656 C 22.546875 15.582031 22.546875 15.570312 22.546875 15.546875 L 22.546875 15.542969 L 22.445312 15.554688 C 22.445312 15.570312 22.445312 15.578125 22.445312 15.59375 C 22.445312 15.652344 22.433594 15.714844 22.410156 15.773438 Z M 22.503906 15.816406 " fill-opacity="1" fill-rule="nonzero"/><path fill="#f26934" d="M 22.367188 16.039062 L 22.289062 15.980469 C 22.242188 16.035156 22.1875 16.097656 22.121094 16.144531 L 22.1875 16.222656 C 22.257812 16.160156 22.316406 16.101562 22.367188 16.039062 Z M 22.367188 16.039062 " fill-opacity="1" fill-rule="nonzero"/><path fill="#f26934" d="M 22.265625 15.105469 L 22.207031 15.1875 C 22.273438 15.238281 22.328125 15.289062 22.367188 15.347656 L 22.457031 15.292969 C 22.40625 15.222656 22.34375 15.160156 22.265625 15.105469 Z M 22.265625 15.105469 " fill-opacity="1" fill-rule="nonzero"/><path fill="#f26934" d="M 19.917969 15.414062 C 19.980469 15.363281 20.046875 15.316406 20.117188 15.277344 L 20.066406 15.191406 C 19.992188 15.238281 19.917969 15.289062 19.859375 15.335938 Z M 19.917969 15.414062 " fill-opacity="1" fill-rule="nonzero"/><path fill="#f26934" d="M 21.75 16.484375 C 21.832031 16.449219 21.90625 16.40625 21.976562 16.367188 L 21.925781 16.28125 C 21.863281 16.320312 21.785156 16.355469 21.710938 16.390625 Z M 21.75 16.484375 " fill-opacity="1" fill-rule="nonzero"/><path fill="#f26934" d="M 21.039062 14.976562 L 21.03125 14.875 C 21 14.878906 20.96875 14.886719 20.9375 14.886719 C 20.882812 14.894531 20.832031 14.90625 20.777344 14.914062 L 20.796875 15.015625 C 20.847656 15.007812 20.898438 14.996094 20.953125 14.984375 C 20.984375 14.984375 21.007812 14.980469 21.039062 14.976562 Z M 21.039062 14.976562 " fill-opacity="1" fill-rule="nonzero"/><path fill="#f26934" d="M 19.507812 16.011719 C 19.511719 16.101562 19.542969 16.1875 19.59375 16.265625 L 19.679688 16.210938 C 19.640625 16.144531 19.613281 16.074219 19.609375 16 Z M 19.507812 16.011719 " fill-opacity="1" fill-rule="nonzero"/><path fill="#f26934" d="M 20.335938 15.167969 C 20.40625 15.136719 20.480469 15.105469 20.5625 15.082031 L 20.53125 14.984375 C 20.511719 14.992188 20.496094 14.996094 20.476562 15.007812 L 20.40625 14.839844 L 20.316406 14.878906 L 20.386719 15.042969 C 20.355469 15.050781 20.324219 15.066406 20.292969 15.078125 Z M 20.335938 15.167969 " fill-opacity="1" fill-rule="nonzero"/><path fill="#f26934" d="M 21.539062 14.867188 C 21.457031 14.859375 21.371094 14.855469 21.285156 14.855469 L 21.285156 14.957031 C 21.363281 14.957031 21.445312 14.957031 21.527344 14.964844 Z M 21.539062 14.867188 " fill-opacity="1" fill-rule="nonzero"/><path fill="#f26934" d="M 22.160156 15.539062 C 22.125 15.378906 21.972656 15.257812 21.746094 15.195312 L 21.136719 15.90625 L 21.472656 15.148438 C 21.296875 15.132812 21.109375 15.148438 20.914062 15.1875 C 20.292969 15.316406 19.847656 15.683594 19.914062 16.011719 C 19.984375 16.332031 20.542969 16.492188 21.160156 16.355469 C 21.785156 16.230469 22.230469 15.863281 22.160156 15.539062 Z M 22.160156 15.539062 " fill-opacity="1" fill-rule="nonzero"/><g clip-path="url(#8a40dabef6)"><path fill="#f26934" d="M 24.875 11.671875 C 24.691406 11.546875 24.515625 11.417969 24.34375 11.300781 C 24.128906 11.148438 23.90625 10.988281 23.671875 10.832031 C 23.515625 10.726562 23.210938 10.78125 23.070312 10.902344 C 23.046875 10.921875 23.027344 10.9375 23.011719 10.953125 C 23.113281 10.9375 23.226562 10.960938 23.328125 11.03125 C 23.742188 11.3125 24.164062 11.601562 24.582031 11.886719 C 24.78125 12.023438 24.832031 12.257812 24.710938 12.445312 C 24.703125 12.460938 24.691406 12.472656 24.683594 12.488281 C 24.808594 12.449219 24.941406 12.308594 25.027344 12.113281 C 25.097656 11.957031 25.03125 11.78125 24.875 11.671875 Z M 24.875 11.671875 " fill-opacity="1" fill-rule="nonzero"/></g><path fill="#f26934" d="M 24.148438 12.542969 C 24.144531 12.539062 24.140625 12.539062 24.132812 12.535156 C 24.078125 12.496094 24.023438 12.453125 23.964844 12.410156 C 23.953125 12.398438 23.941406 12.382812 23.925781 12.375 L 23.839844 12.503906 C 23.714844 12.695312 23.589844 12.871094 23.472656 13.050781 C 23.472656 13.066406 23.484375 13.101562 23.503906 13.128906 C 23.777344 13.570312 23.828125 14.03125 23.652344 14.507812 C 23.617188 14.605469 23.570312 14.667969 23.515625 14.703125 C 23.613281 14.746094 23.714844 14.753906 23.789062 14.734375 C 23.84375 14.71875 23.878906 14.679688 23.902344 14.628906 C 24.023438 14.308594 24.179688 13.695312 23.878906 13.222656 C 23.875 13.210938 23.808594 13.105469 23.851562 13.042969 C 23.925781 12.917969 24.039062 12.726562 24.148438 12.542969 Z M 24.148438 12.542969 " fill-opacity="1" fill-rule="nonzero"/><path fill="#f26934" d="M 21.972656 12.480469 C 21.992188 12.472656 22.007812 12.472656 22.027344 12.46875 C 22.050781 12.46875 22.066406 12.464844 22.085938 12.464844 C 22.238281 12.449219 22.394531 12.460938 22.546875 12.488281 C 22.621094 12.503906 22.648438 12.496094 22.6875 12.433594 C 22.722656 12.382812 22.757812 12.332031 22.796875 12.277344 C 22.738281 12.273438 22.6875 12.269531 22.632812 12.269531 C 22.429688 12.269531 22.230469 12.3125 22.054688 12.394531 C 22.039062 12.398438 22.023438 12.410156 22.007812 12.414062 C 21.992188 12.425781 21.976562 12.429688 21.964844 12.4375 C 21.933594 12.460938 21.898438 12.472656 21.867188 12.496094 C 21.898438 12.496094 21.9375 12.484375 21.972656 12.480469 Z M 21.972656 12.480469 " fill-opacity="1" fill-rule="nonzero"/><path fill="#f26934" d="M 16.886719 13.5625 C 17.128906 13.527344 17.3125 13.324219 17.3125 13.078125 C 17.3125 12.804688 17.089844 12.585938 16.816406 12.585938 C 16.769531 12.585938 16.730469 12.589844 16.6875 12.601562 C 16.652344 12.609375 16.621094 12.621094 16.59375 12.636719 C 16.429688 12.714844 16.316406 12.882812 16.316406 13.078125 C 16.316406 13.339844 16.527344 13.554688 16.785156 13.570312 C 16.796875 13.570312 16.804688 13.570312 16.816406 13.570312 C 16.839844 13.570312 16.859375 13.5625 16.886719 13.5625 Z M 16.886719 13.5625 " fill-opacity="1" fill-rule="nonzero"/><path fill="#f26934" d="M 17.460938 16.847656 C 17.46875 16.847656 17.480469 16.847656 17.488281 16.847656 C 17.515625 16.847656 17.539062 16.847656 17.5625 16.84375 C 17.800781 16.808594 17.988281 16.601562 17.988281 16.355469 C 17.988281 16.085938 17.765625 15.863281 17.488281 15.863281 C 17.445312 15.863281 17.402344 15.871094 17.363281 15.878906 C 17.328125 15.890625 17.296875 15.898438 17.265625 15.914062 C 17.105469 15.996094 16.992188 16.160156 16.992188 16.355469 C 16.992188 16.617188 17.199219 16.835938 17.460938 16.847656 Z M 17.460938 16.847656 " fill-opacity="1" fill-rule="nonzero"/><path fill="#000000" d="M 10.105469 9.535156 C 10.109375 9.5625 10.109375 9.585938 10.117188 9.613281 C 10.152344 9.796875 10.238281 9.957031 10.375 10.078125 C 10.527344 10.210938 10.722656 10.28125 10.941406 10.28125 C 10.988281 10.28125 11.035156 10.273438 11.085938 10.269531 C 11.535156 10.210938 12.039062 9.761719 12.0625 9.199219 C 12.0625 9.179688 12.0625 9.164062 12.0625 9.144531 C 12.0625 8.882812 11.960938 8.652344 11.773438 8.496094 C 11.769531 8.492188 11.765625 8.492188 11.765625 8.488281 C 11.742188 8.472656 11.722656 8.457031 11.703125 8.441406 C 11.683594 8.425781 11.664062 8.417969 11.640625 8.40625 C 11.480469 8.320312 11.285156 8.289062 11.078125 8.320312 C 10.617188 8.367188 10.101562 8.851562 10.101562 9.429688 C 10.101562 9.441406 10.101562 9.449219 10.101562 9.457031 C 10.101562 9.484375 10.101562 9.511719 10.105469 9.535156 Z M 11.09375 8.421875 C 11.140625 8.417969 11.191406 8.410156 11.238281 8.410156 C 11.398438 8.410156 11.550781 8.457031 11.671875 8.546875 C 11.6875 8.558594 11.699219 8.566406 11.714844 8.578125 C 11.71875 8.582031 11.722656 8.585938 11.726562 8.59375 C 11.75 8.605469 11.765625 8.628906 11.785156 8.648438 C 11.902344 8.777344 11.964844 8.953125 11.964844 9.148438 C 11.972656 9.683594 11.5 10.117188 11.074219 10.175781 C 10.832031 10.203125 10.609375 10.144531 10.445312 10.007812 C 10.347656 9.929688 10.28125 9.824219 10.242188 9.703125 C 10.238281 9.683594 10.226562 9.65625 10.222656 9.632812 C 10.21875 9.613281 10.210938 9.585938 10.210938 9.5625 C 10.207031 9.519531 10.203125 9.480469 10.203125 9.4375 C 10.203125 8.902344 10.667969 8.464844 11.09375 8.421875 Z M 11.09375 8.421875 " fill-opacity="1" fill-rule="nonzero"/><g clip-path="url(#17f2354a93)"><path fill="#000000" d="M 24.929688 11.585938 C 24.746094 11.460938 24.570312 11.335938 24.402344 11.214844 C 24.191406 11.0625 23.964844 10.902344 23.734375 10.746094 C 23.535156 10.609375 23.179688 10.675781 23.007812 10.820312 C 22.90625 10.90625 22.84375 10.976562 22.820312 11.039062 C 22.796875 11.058594 22.773438 11.082031 22.753906 11.109375 C 22.695312 11.199219 22.667969 11.304688 22.6875 11.40625 C 22.707031 11.515625 22.78125 11.609375 22.882812 11.679688 C 22.9375 11.722656 22.996094 11.75 23.0625 11.785156 C 23.078125 11.796875 23.097656 11.804688 23.121094 11.816406 C 23.078125 11.871094 23.039062 11.925781 23.003906 11.980469 C 22.953125 12.050781 22.902344 12.121094 22.855469 12.1875 C 22.5625 12.144531 22.261719 12.1875 22 12.308594 L 20.675781 9.96875 L 20.65625 9.929688 L 16.46875 11.730469 L 12.589844 10.339844 C 12.671875 10.183594 12.742188 10.027344 12.8125 9.871094 C 12.933594 9.589844 13.050781 9.285156 13.035156 8.96875 C 13.035156 8.953125 13.035156 8.933594 13.035156 8.917969 C 13.035156 8.878906 13.035156 8.839844 13.035156 8.792969 C 13.03125 8.753906 13.027344 8.71875 13.015625 8.683594 C 12.945312 8.347656 12.820312 8.070312 12.636719 7.859375 C 12.429688 7.304688 12.007812 6.972656 11.394531 6.875 C 10.652344 6.753906 9.972656 7.023438 9.425781 7.652344 C 8.871094 8.289062 8.707031 8.96875 8.949219 9.613281 C 9.066406 9.921875 9.222656 10.222656 9.410156 10.5 C 9.515625 10.710938 9.640625 10.917969 9.78125 11.113281 L 8.730469 11.441406 L 4.886719 19.164062 L 5.707031 18.867188 L 11.417969 16.804688 L 17.953125 19.125 L 17.964844 19.128906 L 23.511719 17.058594 L 24.472656 16.699219 L 23.375 14.753906 C 23.464844 14.808594 23.582031 14.851562 23.699219 14.851562 C 23.738281 14.851562 23.773438 14.84375 23.8125 14.835938 C 23.902344 14.808594 23.960938 14.75 23.992188 14.667969 C 24.117188 14.332031 24.28125 13.683594 23.960938 13.171875 C 23.941406 13.140625 23.929688 13.105469 23.929688 13.097656 C 24.011719 12.964844 24.125 12.78125 24.234375 12.601562 C 24.3125 12.628906 24.390625 12.640625 24.46875 12.625 C 24.492188 12.621094 24.519531 12.609375 24.542969 12.601562 C 24.59375 12.609375 24.652344 12.609375 24.703125 12.59375 C 24.859375 12.550781 25.015625 12.390625 25.117188 12.164062 C 25.210938 11.953125 25.132812 11.726562 24.929688 11.585938 Z M 25.027344 12.113281 C 24.941406 12.304688 24.808594 12.449219 24.683594 12.488281 C 24.691406 12.472656 24.703125 12.464844 24.710938 12.445312 C 24.839844 12.257812 24.78125 12.023438 24.582031 11.886719 C 24.164062 11.601562 23.742188 11.3125 23.328125 11.03125 C 23.226562 10.960938 23.113281 10.9375 23.011719 10.953125 C 23.027344 10.9375 23.046875 10.921875 23.070312 10.902344 C 23.210938 10.78125 23.515625 10.726562 23.671875 10.832031 C 23.90625 10.988281 24.128906 11.148438 24.34375 11.300781 C 24.515625 11.417969 24.6875 11.546875 24.875 11.671875 C 25.03125 11.78125 25.097656 11.957031 25.027344 12.113281 Z M 24.421875 12.519531 C 24.382812 12.523438 24.335938 12.519531 24.292969 12.503906 C 24.277344 12.5 24.261719 12.496094 24.246094 12.484375 C 24.230469 12.480469 24.214844 12.46875 24.199219 12.460938 C 24.195312 12.460938 24.195312 12.453125 24.191406 12.453125 C 24.140625 12.417969 24.089844 12.378906 24.03125 12.332031 C 24.007812 12.3125 23.976562 12.289062 23.945312 12.261719 L 23.90625 12.226562 L 23.757812 12.449219 C 23.625 12.640625 23.503906 12.820312 23.386719 13 C 23.347656 13.066406 23.410156 13.167969 23.417969 13.183594 C 23.675781 13.59375 23.722656 14.03125 23.554688 14.480469 C 23.519531 14.570312 23.480469 14.625 23.429688 14.640625 C 23.417969 14.644531 23.402344 14.644531 23.394531 14.644531 C 23.367188 14.644531 23.335938 14.632812 23.300781 14.621094 C 23.277344 14.609375 23.257812 14.59375 23.226562 14.578125 C 23.222656 14.574219 23.214844 14.574219 23.210938 14.570312 C 23.199219 14.5625 23.191406 14.554688 23.179688 14.550781 C 23.160156 14.535156 23.140625 14.519531 23.121094 14.507812 C 23.042969 14.457031 22.972656 14.410156 22.894531 14.359375 C 22.804688 14.296875 22.71875 14.238281 22.628906 14.175781 C 22.480469 14.078125 22.339844 13.980469 22.191406 13.878906 C 22.152344 13.855469 22.109375 13.824219 22.070312 13.800781 C 22.035156 13.773438 21.992188 13.75 21.957031 13.726562 C 21.730469 13.570312 21.507812 13.417969 21.277344 13.261719 C 21.234375 13.234375 21.183594 13.183594 21.175781 13.117188 C 21.171875 13.050781 21.21875 12.996094 21.257812 12.960938 C 21.320312 12.902344 21.390625 12.847656 21.460938 12.796875 C 21.464844 12.789062 21.472656 12.789062 21.476562 12.785156 C 21.496094 12.769531 21.515625 12.761719 21.542969 12.746094 C 21.574219 12.730469 21.601562 12.710938 21.632812 12.695312 C 21.652344 12.683594 21.667969 12.679688 21.6875 12.671875 C 21.796875 12.625 21.914062 12.59375 22.027344 12.574219 C 22.050781 12.570312 22.066406 12.570312 22.085938 12.570312 C 22.105469 12.570312 22.121094 12.566406 22.140625 12.566406 C 22.171875 12.566406 22.203125 12.558594 22.226562 12.558594 C 22.324219 12.558594 22.425781 12.570312 22.527344 12.589844 C 22.621094 12.609375 22.699219 12.601562 22.769531 12.496094 C 22.808594 12.429688 22.855469 12.367188 22.902344 12.304688 C 22.910156 12.289062 22.921875 12.273438 22.933594 12.257812 C 22.941406 12.242188 22.953125 12.226562 22.960938 12.214844 C 23.003906 12.15625 23.042969 12.101562 23.085938 12.042969 C 23.132812 11.976562 23.179688 11.90625 23.234375 11.832031 L 23.265625 11.785156 L 23.214844 11.761719 C 23.179688 11.742188 23.144531 11.722656 23.109375 11.707031 C 23.042969 11.671875 22.988281 11.640625 22.9375 11.605469 C 22.855469 11.550781 22.804688 11.476562 22.789062 11.394531 C 22.773438 11.324219 22.789062 11.253906 22.832031 11.195312 C 22.835938 11.1875 22.835938 11.183594 22.839844 11.171875 C 22.84375 11.164062 22.855469 11.152344 22.859375 11.148438 C 22.875 11.132812 22.890625 11.117188 22.90625 11.109375 C 23.007812 11.039062 23.148438 11.039062 23.273438 11.125 C 23.683594 11.398438 24.097656 11.679688 24.507812 11.960938 C 24.515625 11.96875 24.519531 11.972656 24.53125 11.972656 C 24.539062 11.976562 24.542969 11.980469 24.554688 11.988281 C 24.566406 11.996094 24.574219 12.003906 24.585938 12.011719 C 24.605469 12.03125 24.621094 12.046875 24.636719 12.066406 C 24.703125 12.167969 24.707031 12.289062 24.640625 12.390625 C 24.617188 12.429688 24.582031 12.460938 24.542969 12.480469 C 24.523438 12.488281 24.507812 12.5 24.488281 12.503906 C 24.480469 12.507812 24.46875 12.507812 24.457031 12.515625 C 24.441406 12.519531 24.433594 12.519531 24.421875 12.519531 Z M 23.84375 13.042969 C 23.804688 13.105469 23.863281 13.207031 23.875 13.222656 C 24.167969 13.699219 24.011719 14.308594 23.894531 14.628906 C 23.875 14.683594 23.839844 14.71875 23.785156 14.734375 C 23.714844 14.761719 23.605469 14.746094 23.511719 14.703125 C 23.566406 14.667969 23.613281 14.605469 23.648438 14.507812 C 23.824219 14.035156 23.773438 13.570312 23.5 13.128906 C 23.480469 13.097656 23.46875 13.0625 23.46875 13.050781 C 23.585938 12.871094 23.707031 12.691406 23.835938 12.503906 L 23.921875 12.375 C 23.9375 12.382812 23.953125 12.398438 23.960938 12.410156 C 24.015625 12.453125 24.074219 12.5 24.128906 12.535156 C 24.132812 12.539062 24.140625 12.539062 24.144531 12.542969 C 24.039062 12.726562 23.925781 12.917969 23.84375 13.042969 Z M 9.039062 9.578125 C 8.8125 8.96875 8.96875 8.324219 9.496094 7.71875 C 9.9375 7.207031 10.46875 6.945312 11.046875 6.945312 C 11.15625 6.945312 11.261719 6.953125 11.367188 6.96875 C 11.855469 7.050781 12.210938 7.28125 12.429688 7.667969 C 12.21875 7.507812 11.964844 7.402344 11.667969 7.355469 C 10.925781 7.234375 10.246094 7.507812 9.699219 8.136719 C 9.210938 8.691406 9.023438 9.28125 9.152344 9.851562 C 9.109375 9.761719 9.074219 9.667969 9.039062 9.578125 Z M 9.492188 10.449219 C 9.425781 10.324219 9.371094 10.1875 9.320312 10.058594 C 9.089844 9.449219 9.25 8.808594 9.777344 8.199219 C 10.21875 7.691406 10.75 7.429688 11.328125 7.429688 C 11.433594 7.429688 11.539062 7.441406 11.648438 7.457031 C 12.023438 7.515625 12.320312 7.671875 12.539062 7.914062 C 12.570312 7.949219 12.601562 7.988281 12.632812 8.023438 C 12.660156 8.070312 12.691406 8.121094 12.722656 8.171875 C 12.808594 8.324219 12.871094 8.5 12.910156 8.703125 C 12.921875 8.734375 12.925781 8.769531 12.925781 8.796875 C 12.925781 8.839844 12.925781 8.875 12.925781 8.914062 C 12.925781 8.929688 12.925781 8.949219 12.925781 8.964844 C 12.933594 9.265625 12.828125 9.554688 12.707031 9.828125 C 12.636719 9.988281 12.558594 10.144531 12.484375 10.300781 C 12.472656 10.316406 12.46875 10.328125 12.457031 10.34375 C 12.449219 10.359375 12.445312 10.375 12.433594 10.390625 C 12.351562 10.539062 12.265625 10.6875 12.175781 10.832031 C 12.074219 10.996094 11.960938 11.160156 11.84375 11.3125 C 11.804688 11.371094 11.765625 11.425781 11.71875 11.480469 C 11.617188 11.609375 11.515625 11.734375 11.402344 11.863281 C 11.113281 12.183594 11.007812 12.199219 10.722656 11.972656 C 10.632812 11.902344 10.550781 11.828125 10.464844 11.75 C 10.445312 11.730469 10.425781 11.710938 10.40625 11.691406 C 10.328125 11.621094 10.257812 11.546875 10.1875 11.46875 C 10.09375 11.371094 10.003906 11.265625 9.921875 11.160156 C 9.917969 11.152344 9.914062 11.144531 9.90625 11.136719 C 9.902344 11.132812 9.898438 11.125 9.890625 11.117188 C 9.882812 11.101562 9.871094 11.089844 9.863281 11.078125 C 9.796875 10.988281 9.734375 10.898438 9.675781 10.800781 C 9.617188 10.691406 9.550781 10.570312 9.492188 10.449219 Z M 9.835938 11.199219 C 9.917969 11.308594 10.003906 11.414062 10.101562 11.515625 C 10.167969 11.589844 10.238281 11.660156 10.308594 11.730469 C 10.328125 11.75 10.347656 11.769531 10.375 11.792969 C 10.46875 11.882812 10.570312 11.972656 10.679688 12.058594 C 10.820312 12.171875 10.9375 12.234375 11.042969 12.234375 C 11.179688 12.234375 11.3125 12.136719 11.496094 11.9375 C 11.625 11.792969 11.75 11.640625 11.867188 11.484375 C 11.914062 11.414062 11.972656 11.34375 12.023438 11.273438 C 12.113281 11.144531 12.207031 11.007812 12.285156 10.871094 C 12.378906 10.726562 12.464844 10.582031 12.539062 10.429688 L 16.425781 11.820312 L 16.527344 12.320312 L 16.558594 12.460938 L 16.570312 12.535156 C 16.363281 12.628906 16.21875 12.835938 16.21875 13.078125 C 16.21875 13.402344 16.480469 13.664062 16.804688 13.667969 L 17.035156 14.785156 L 17.058594 14.90625 L 17.246094 15.808594 C 17.039062 15.898438 16.890625 16.109375 16.890625 16.351562 C 16.890625 16.679688 17.15625 16.941406 17.484375 16.945312 L 17.757812 18.28125 L 17.90625 18.988281 L 11.460938 16.699219 L 11.503906 16.175781 L 11.589844 15.222656 L 11.601562 15.121094 L 11.722656 13.808594 L 11.734375 13.710938 L 11.835938 12.609375 C 11.800781 12.621094 11.765625 12.628906 11.726562 12.640625 L 11.632812 13.699219 L 11.621094 13.800781 L 11.5 15.125 L 11.488281 15.226562 L 11.402344 16.175781 L 11.351562 16.707031 L 5.773438 18.726562 L 5.089844 18.984375 L 8.796875 11.523438 Z M 22.789062 12.285156 C 22.753906 12.332031 22.71875 12.382812 22.683594 12.4375 C 22.644531 12.496094 22.617188 12.507812 22.542969 12.496094 C 22.390625 12.460938 22.230469 12.453125 22.078125 12.46875 C 22.058594 12.46875 22.042969 12.472656 22.023438 12.472656 C 22.003906 12.472656 21.988281 12.480469 21.96875 12.484375 C 21.925781 12.488281 21.890625 12.5 21.855469 12.507812 C 21.886719 12.488281 21.917969 12.46875 21.953125 12.453125 C 21.96875 12.445312 21.984375 12.4375 22 12.429688 C 22.015625 12.417969 22.027344 12.414062 22.042969 12.410156 C 22.226562 12.324219 22.425781 12.285156 22.621094 12.285156 C 22.679688 12.273438 22.734375 12.277344 22.789062 12.285156 Z M 21.636719 12.542969 C 21.617188 12.558594 21.601562 12.574219 21.582031 12.59375 C 21.578125 12.601562 21.574219 12.605469 21.574219 12.605469 C 21.515625 12.628906 21.460938 12.660156 21.410156 12.695312 C 21.328125 12.746094 21.253906 12.804688 21.183594 12.875 C 21.101562 12.953125 21.066406 13.03125 21.070312 13.113281 C 21.074219 13.191406 21.125 13.273438 21.21875 13.332031 C 21.488281 13.515625 21.753906 13.699219 22.023438 13.878906 C 22.035156 13.886719 22.042969 13.894531 22.058594 13.902344 C 22.125 13.945312 22.191406 13.992188 22.257812 14.035156 C 22.359375 14.105469 22.457031 14.171875 22.554688 14.242188 C 22.757812 14.378906 22.960938 14.519531 23.164062 14.65625 C 23.183594 14.667969 23.207031 14.679688 23.222656 14.691406 L 24.320312 16.636719 L 23.46875 16.960938 L 18.003906 19.003906 L 17.855469 18.285156 L 17.574219 16.941406 C 17.859375 16.894531 18.082031 16.648438 18.082031 16.351562 C 18.082031 16.027344 17.816406 15.757812 17.484375 15.757812 C 17.433594 15.757812 17.382812 15.765625 17.335938 15.78125 L 17.136719 14.804688 L 17.105469 14.667969 L 16.894531 13.660156 C 17.1875 13.613281 17.402344 13.367188 17.402344 13.070312 C 17.402344 12.746094 17.136719 12.480469 16.804688 12.480469 C 16.800781 12.480469 16.800781 12.480469 16.796875 12.480469 C 16.75 12.480469 16.703125 12.484375 16.65625 12.5 C 16.65625 12.5 16.652344 12.5 16.652344 12.5 L 16.652344 12.496094 L 16.617188 12.3125 L 16.515625 11.8125 L 20.609375 10.058594 L 21.90625 12.359375 C 21.8125 12.410156 21.726562 12.472656 21.636719 12.542969 Z M 17.488281 16.847656 C 17.480469 16.847656 17.46875 16.847656 17.460938 16.847656 C 17.199219 16.835938 16.992188 16.617188 16.992188 16.355469 C 16.992188 16.167969 17.105469 15.996094 17.265625 15.914062 C 17.296875 15.898438 17.328125 15.890625 17.363281 15.878906 C 17.402344 15.871094 17.445312 15.863281 17.488281 15.863281 C 17.765625 15.863281 17.988281 16.085938 17.988281 16.355469 C 17.988281 16.601562 17.804688 16.808594 17.5625 16.84375 C 17.539062 16.847656 17.515625 16.847656 17.488281 16.847656 Z M 16.816406 13.570312 C 16.804688 13.570312 16.796875 13.570312 16.785156 13.570312 C 16.527344 13.554688 16.316406 13.339844 16.316406 13.078125 C 16.316406 12.886719 16.429688 12.71875 16.59375 12.636719 C 16.621094 12.621094 16.652344 12.609375 16.6875 12.601562 C 16.730469 12.589844 16.769531 12.585938 16.816406 12.585938 C 17.089844 12.585938 17.3125 12.804688 17.3125 13.078125 C 17.3125 13.324219 17.125 13.527344 16.886719 13.5625 C 16.859375 13.5625 16.839844 13.570312 16.816406 13.570312 Z M 16.816406 13.570312 " fill-opacity="1" fill-rule="nonzero"/></g><path fill="#000000" d="M 8.53125 16.222656 C 8.84375 16.222656 9.097656 15.96875 9.097656 15.664062 C 9.097656 15.359375 8.84375 15.105469 8.53125 15.105469 C 8.222656 15.105469 7.96875 15.359375 7.96875 15.664062 C 7.96875 15.96875 8.21875 16.222656 8.53125 16.222656 Z M 8.53125 15.203125 C 8.785156 15.203125 8.996094 15.40625 8.996094 15.660156 C 8.996094 15.910156 8.785156 16.117188 8.53125 16.117188 C 8.28125 16.117188 8.070312 15.910156 8.070312 15.660156 C 8.070312 15.40625 8.273438 15.203125 8.53125 15.203125 Z M 8.53125 15.203125 " fill-opacity="1" fill-rule="nonzero"/><g clip-path="url(#746a97839f)"><path fill="#000000" d="M 23.515625 17.054688 L 17.972656 19.128906 L 17.953125 19.121094 L 11.425781 16.800781 L 5.707031 18.867188 L 5.242188 19.800781 L 24.660156 19.800781 Z M 23.515625 17.054688 " fill-opacity="1" fill-rule="nonzero"/></g><path fill="#000000" d="M 11.1875 12.761719 C 11.375 12.726562 11.554688 12.683594 11.726562 12.640625 C 11.765625 12.628906 11.800781 12.621094 11.835938 12.609375 C 12.417969 12.4375 12.84375 12.199219 12.957031 11.976562 C 12.972656 11.941406 12.980469 11.90625 12.984375 11.875 C 12.984375 11.863281 12.984375 11.847656 12.984375 11.832031 C 12.945312 11.601562 12.496094 11.476562 11.871094 11.480469 C 11.753906 11.636719 11.632812 11.785156 11.5 11.933594 C 11.316406 12.132812 11.1875 12.226562 11.046875 12.226562 C 10.9375 12.226562 10.824219 12.167969 10.683594 12.050781 C 10.578125 11.96875 10.476562 11.875 10.378906 11.785156 C 10.359375 11.765625 10.339844 11.746094 10.3125 11.726562 C 10.007812 11.816406 9.746094 11.925781 9.550781 12.042969 C 9.304688 12.191406 9.167969 12.347656 9.191406 12.496094 C 9.242188 12.824219 10.140625 12.945312 11.1875 12.761719 Z M 11.1875 12.761719 " fill-opacity="1" fill-rule="nonzero"/><path fill="#000000" d="M 21.886719 15.035156 L 21.957031 14.957031 L 22.367188 14.480469 L 22.417969 14.417969 L 22.566406 14.246094 C 22.464844 14.175781 22.367188 14.113281 22.265625 14.042969 C 22.203125 13.996094 22.136719 13.949219 22.070312 13.90625 C 22.058594 13.902344 22.050781 13.890625 22.035156 13.886719 L 21.476562 15.152344 L 21.140625 15.910156 L 21.75 15.203125 Z M 21.886719 15.035156 " fill-opacity="1" fill-rule="nonzero"/></svg>